<svg width="24" height="24" viewBox="0 0 24 24" fill="none" xmlns="http://www.w3.org/2000/svg">
<path fill-rule="evenodd" clip-rule="evenodd" d="M15 12.0001H13V10.0001C13 9.45014 12.55 9.00014 12 9.00014C11.45 9.00014 11 9.45014 11 10.0001V12.0001H9.00001C8.45001 12.0001 8.00001 12.4501 8.00001 13.0001C8.00001 13.5501 8.45001 14.0001 9.00001 14.0001H11V16.0001C11 16.5501 11.45 17.0001 12 17.0001C12.55 17.0001 13 16.5501 13 16.0001V14.0001H15C15.55 14.0001 16 13.5501 16 13.0001C16 12.4501 15.55 12.0001 15 12.0001ZM21.18 5.01014L18.1 2.45014C17.68 2.10014 17.05 2.15014 16.69 2.58014C16.34 3.00014 16.4 3.63014 16.82 3.99014L19.89 6.55014C20.31 6.90014 20.94 6.85014 21.3 6.42014C21.66 6.00014 21.6 5.37014 21.18 5.01014V5.01014ZM4.10001 6.55014L7.17001 3.99014C7.60001 3.63014 7.66001 3.00014 7.30001 2.58014C6.95001 2.15014 6.32001 2.10014 5.90001 2.45014L2.82001 5.01014C2.40001 5.37014 2.34001 6.00014 2.70001 6.42014C3.05001 6.85014 3.68001 6.90014 4.10001 6.55014ZM12 4.00014C7.03001 4.00014 3.00001 8.03014 3.00001 13.0001C3.00001 17.9701 7.03001 22.0001 12 22.0001C16.97 22.0001 21 17.9701 21 13.0001C21 8.03014 16.97 4.00014 12 4.00014ZM12 20.0001C8.14001 20.0001 5.00001 16.8601 5.00001 13.0001C5.00001 9.14014 8.14001 6.00014 12 6.00014C15.86 6.00014 19 9.14014 19 13.0001C19 16.8601 15.86 20.0001 12 20.0001Z" fill="#969696"/>
</svg>
