<svg width="24" height="24" viewBox="0 0 24 24" fill="none" xmlns="http://www.w3.org/2000/svg">
<path fill-rule="evenodd" clip-rule="evenodd" d="M18 1.01L8 1C6.9 1 6 1.9 6 3V6C6 6.55 6.45 7 7 7C7.55 7 8 6.55 8 6V5H18V19H8V18C8 17.45 7.55 17 7 17C6.45 17 6 17.45 6 18V21C6 22.1 6.9 23 8 23H18C19.1 23 20 22.1 20 21V3C20 1.9 19.1 1.01 18 1.01ZM11 15C11.55 15 12 14.55 12 14V9C12 8.45 11.55 8 11 8H6C5.45 8 5 8.45 5 9C5 9.55 5.45 10 6 10H8.59L3.7 14.89C3.31 15.28 3.31 15.91 3.7 16.3C4.09 16.69 4.72 16.69 5.11 16.3L10 11.41V14C10 14.55 10.45 15 11 15Z" fill="#969696"/>
</svg>
