<svg width="24" height="24" viewBox="0 0 24 24" fill="none" xmlns="http://www.w3.org/2000/svg">
<path fill-rule="evenodd" clip-rule="evenodd" d="M5.34994 5.64011C4.44994 5.00011 4.22994 3.76011 4.85994 2.85011C5.48994 1.95011 6.73994 1.73011 7.64994 2.36011C8.54994 3.00011 8.76994 4.24011 8.13994 5.15011C7.49994 6.05011 6.25994 6.27011 5.34994 5.64011ZM15.9999 20.0001C15.9999 19.4501 15.5499 19.0001 14.9999 19.0001H8.92994C7.44994 19.0001 6.18994 17.9201 5.96994 16.4601L4.15994 7.78011C4.06994 7.33011 3.66994 7.00011 3.19994 7.00011C2.57994 7.00011 2.11994 7.57011 2.23994 8.18011L3.98994 16.7601C4.36994 19.2001 6.46994 21.0001 8.93994 21.0001H14.9999C15.5499 21.0001 15.9999 20.5501 15.9999 20.0001ZM15.5399 15.0001H11.3499L10.3199 10.9001C11.5999 11.6201 12.9499 12.1801 14.4199 12.2001C14.9999 12.2101 15.4699 11.7101 15.4699 11.1301C15.4699 10.5401 14.9799 10.0901 14.3899 10.0701C13.0799 10.0301 11.7599 9.51011 10.7799 8.74011L9.13994 7.47011C8.90994 7.29011 8.64994 7.17011 8.37994 7.09011C8.05994 7.00011 7.71994 6.97011 7.38994 7.03011H7.36994C6.13994 7.25011 5.31994 8.42011 5.52994 9.64011L6.87994 15.5601C7.15994 16.9801 8.38994 18.0001 9.82994 18.0001H16.6799L19.7699 20.4201C20.1899 20.7501 20.7899 20.7101 21.1599 20.3401C21.6099 19.8901 21.5599 19.1601 21.0599 18.7701L16.7699 15.4201C16.4199 15.1501 15.9899 15.0001 15.5399 15.0001Z" fill="#969696"/>
</svg>
