<svg width="24" height="24" viewBox="0 0 24 24" fill="none" xmlns="http://www.w3.org/2000/svg">
<g id="alarm_on">
<path id="Icon" fill-rule="evenodd" clip-rule="evenodd" d="M14.94 10.1101L10.54 14.5301L8.94001 12.9301C8.65001 12.6401 8.17001 12.6401 7.88001 12.9301C7.59001 13.2201 7.59001 13.7001 7.88001 13.9901L10 16.1101C10.29 16.4001 10.77 16.4001 11.06 16.1101L16 11.1701C16.29 10.8801 16.29 10.4001 16 10.1101C15.71 9.82014 15.23 9.82014 14.94 10.1101ZM21.18 5.01014L18.1 2.45014C17.68 2.10014 17.05 2.15014 16.69 2.58014C16.34 3.00014 16.4 3.63014 16.82 3.99014L19.89 6.55014C20.31 6.90014 20.94 6.85014 21.3 6.42014C21.66 6.00014 21.6 5.37014 21.18 5.01014V5.01014ZM4.10001 6.55014L7.17001 3.99014C7.60001 3.63014 7.66001 3.00014 7.30001 2.58014C6.95001 2.15014 6.32001 2.10014 5.90001 2.45014L2.82001 5.01014C2.40001 5.37014 2.34001 6.00014 2.70001 6.42014C3.05001 6.85014 3.68001 6.90014 4.10001 6.55014ZM12 4.00014C7.03001 4.00014 3.00001 8.03014 3.00001 13.0001C3.00001 17.9701 7.03001 22.0001 12 22.0001C16.97 22.0001 21 17.9701 21 13.0001C21 8.03014 16.97 4.00014 12 4.00014ZM12 20.0001C8.14001 20.0001 5.00001 16.8601 5.00001 13.0001C5.00001 9.14014 8.14001 6.00014 12 6.00014C15.86 6.00014 19 9.14014 19 13.0001C19 16.8601 15.86 20.0001 12 20.0001Z" fill="#969696"/>
</g>
</svg>
