<svg width="24" height="24" viewBox="0 0 24 24" fill="none" xmlns="http://www.w3.org/2000/svg">
<path fill-rule="evenodd" clip-rule="evenodd" d="M19.29 17.8901L6.11 4.70005C5.72 4.31005 5.09 4.31005 4.7 4.70005C4.31 5.09005 4.31 5.72005 4.7 6.11005L10.59 12.0001L5.7 16.8901C5.31 17.2801 5.31 17.9101 5.7 18.3001C6.09 18.6901 6.72 18.6901 7.11 18.3001L11 14.4101V20.5901C11 21.4801 12.08 21.9301 12.71 21.3001L16.3 17.7101L17.89 19.3001C18.28 19.6901 18.91 19.6901 19.3 19.3001C19.68 18.9101 19.68 18.2701 19.29 17.8901ZM13 18.1701V14.4101L14.88 16.2901L13 18.1701ZM13 5.83005L14.88 7.71005L13.41 9.18005L14.82 10.5901L17 8.42005C17.39 8.03005 17.39 7.40005 17 7.00005L12.71 2.71005C12.08 2.08005 11 2.52005 11 3.41005V6.77005L13 8.77005V5.83005V5.83005Z" fill="#969696"/>
</svg>
