<svg width="24" height="24" viewBox="0 0 24 24" fill="none" xmlns="http://www.w3.org/2000/svg">
<path fill-rule="evenodd" clip-rule="evenodd" d="M18.87 10.37C18.12 5.61 13.87 2.02 9.04999 2C8.55999 2 8.07999 2.03 7.60999 2.1C7.10999 2.17 7.00999 2.83 7.46999 3.06C10.75 4.69 13 8.08 13 12C13 15.92 10.75 19.31 7.46999 20.95C7.01999 21.18 7.10999 21.84 7.60999 21.91C8.07999 21.97 8.55999 22 9.04999 22C13.87 21.98 18.12 18.39 18.87 13.63C18.96 13.08 18.98 12.54 18.98 12C18.98 11.46 18.96 10.92 18.87 10.37V10.37Z" fill="#969696"/>
</svg>
