<svg width="24" height="24" viewBox="0 0 24 24" fill="none" xmlns="http://www.w3.org/2000/svg">
<g id="bug_report">
<path id="Icon" fill-rule="evenodd" clip-rule="evenodd" d="M19 8.00022H17.19C16.74 7.22022 16.12 6.55021 15.37 6.04021L16.3 5.11021C16.69 4.72021 16.69 4.09021 16.3 3.70021C15.91 3.31021 15.28 3.31021 14.89 3.70021L13.42 5.17021C12.96 5.06021 12.49 5.00021 12 5.00021C11.51 5.00021 11.04 5.06021 10.59 5.17021L9.11 3.70021C8.72 3.31021 8.09 3.31021 7.7 3.70021C7.31 4.09021 7.31 4.72021 7.7 5.11021L8.62 6.04021C7.88 6.55021 7.26 7.22022 6.81 8.00022H5C4.45 8.00022 4 8.45022 4 9.00022C4 9.55022 4.45 10.0002 5 10.0002H6.09C6.04 10.3302 6 10.6602 6 11.0002V12.0002H5C4.45 12.0002 4 12.4502 4 13.0002C4 13.5502 4.45 14.0002 5 14.0002H6V15.0002C6 15.3402 6.04 15.6702 6.09 16.0002H5C4.45 16.0002 4 16.4502 4 17.0002C4 17.5502 4.45 18.0002 5 18.0002H6.81C7.85 19.7902 9.78 21.0002 12 21.0002C14.22 21.0002 16.15 19.7902 17.19 18.0002H19C19.55 18.0002 20 17.5502 20 17.0002C20 16.4502 19.55 16.0002 19 16.0002H17.91C17.96 15.6702 18 15.3402 18 15.0002V14.0002H19C19.55 14.0002 20 13.5502 20 13.0002C20 12.4502 19.55 12.0002 19 12.0002H18V11.0002C18 10.6602 17.96 10.3302 17.91 10.0002H19C19.55 10.0002 20 9.55022 20 9.00022C20 8.45022 19.55 8.00022 19 8.00022ZM13 16.0002H11C10.45 16.0002 10 15.5502 10 15.0002C10 14.4502 10.45 14.0002 11 14.0002H13C13.55 14.0002 14 14.4502 14 15.0002C14 15.5502 13.55 16.0002 13 16.0002ZM13 12.0002H11C10.45 12.0002 10 11.5502 10 11.0002C10 10.4502 10.45 10.0002 11 10.0002H13C13.55 10.0002 14 10.4502 14 11.0002C14 11.5502 13.55 12.0002 13 12.0002Z" fill="#969696"/>
</g>
</svg>
