<svg width="24" height="24" viewBox="0 0 24 24" fill="none" xmlns="http://www.w3.org/2000/svg">
<path fill-rule="evenodd" clip-rule="evenodd" d="M13.81 2.85976C13.98 2.55976 13.81 2.15976 13.46 2.11976C10.84 1.74976 8.15999 2.39976 6.01999 3.97976C5.82999 4.12976 5.76999 4.40976 5.89999 4.62976L8.90999 9.84976C9.09999 10.1798 9.57999 10.1798 9.77999 9.84976L13.81 2.85976ZM21.3 8.32976C20.32 5.85976 18.38 3.86976 15.95 2.82976C15.72 2.72976 15.45 2.82976 15.32 3.04976L12.31 8.25976C12.12 8.57976 12.36 8.99976 12.75 8.99976H20.83C21.18 8.99976 21.43 8.64976 21.3 8.32976ZM21.37 9.99976H15.17C14.79 9.99976 14.54 10.4198 14.74 10.7498L19 18.1398C19.17 18.4398 19.6 18.4898 19.82 18.2198C21.56 16.0398 22.3 13.1898 21.87 10.4298C21.84 10.1798 21.62 9.99976 21.37 9.99976ZM4.17999 5.78976C2.44999 7.97976 1.69999 10.8098 2.12999 13.5798C2.15999 13.8198 2.37999 13.9998 2.62999 13.9998H8.82999C9.20999 13.9998 9.45999 13.5798 9.25999 13.2498L4.99999 5.86976C4.81999 5.56976 4.38999 5.51976 4.17999 5.78976ZM2.69999 15.6698C3.67999 18.1398 5.61999 20.1298 8.04999 21.1698C8.27999 21.2698 8.54999 21.1698 8.67999 20.9498L11.69 15.7398C11.88 15.4098 11.64 14.9898 11.26 14.9898H3.16999C2.81999 14.9998 2.56999 15.3498 2.69999 15.6698ZM10.53 21.8898C13.15 22.2598 15.83 21.6098 17.97 20.0298C18.17 19.8798 18.23 19.5898 18.1 19.3698L15.09 14.1498C14.9 13.8198 14.42 13.8198 14.22 14.1498L10.18 21.1398C10.01 21.4398 10.19 21.8398 10.53 21.8898Z" fill="#969696"/>
</svg>
