<svg width="24" height="24" viewBox="0 0 24 24" fill="none" xmlns="http://www.w3.org/2000/svg">
<path fill-rule="evenodd" clip-rule="evenodd" d="M2.7 11.3002L4.65 9.35021C5.14 8.86021 5.94 8.86021 6.42 9.35021C6.9 9.84021 6.9 10.6202 6.42 11.1102L5.54 12.0002L6.42 12.9002C6.9 13.3902 6.9 14.1702 6.42 14.6602C5.93 15.1502 5.14 15.1502 4.65 14.6602L2.7 12.7102C2.31 12.3202 2.31 11.6902 2.7 11.3002ZM17.58 11.1102C17.1 10.6202 17.1 9.84022 17.58 9.35021C18.06 8.86022 18.86 8.86022 19.35 9.34022L21.3 11.2902C21.69 11.6802 21.69 12.3102 21.3 12.7002L19.35 14.6502C18.86 15.1402 18.07 15.1402 17.58 14.6502C17.1 14.1602 17.1 13.3802 17.58 12.8902L18.46 12.0002L17.58 11.1102ZM11.11 17.5802L12 18.4602L12.9 17.5802C13.39 17.1002 14.17 17.1002 14.66 17.5802C15.15 18.0702 15.15 18.8602 14.66 19.3502L12.71 21.3002C12.32 21.6902 11.69 21.6902 11.3 21.3002L9.35 19.3502C8.86 18.8602 8.86 18.0702 9.35 17.5802C9.84 17.1002 10.62 17.1002 11.11 17.5802ZM11.11 6.42021C10.62 6.90021 9.84 6.90021 9.35 6.42021C8.86 5.94021 8.86 5.14021 9.35 4.65021L11.29 2.70021C11.68 2.31021 12.31 2.31021 12.7 2.70021L14.65 4.65021C15.14 5.14021 15.14 5.93021 14.65 6.42021C14.16 6.90021 13.38 6.90021 12.89 6.42021L12 5.54021L11.11 6.42021ZM15 12.0002C15 13.6571 13.6569 15.0002 12 15.0002C10.3431 15.0002 9 13.6571 9 12.0002C9 10.3434 10.3431 9.00022 12 9.00022C13.6569 9.00022 15 10.3434 15 12.0002Z" fill="#969696"/>
</svg>
