<svg width="24" height="24" viewBox="0 0 24 24" fill="none" xmlns="http://www.w3.org/2000/svg">
<path fill-rule="evenodd" clip-rule="evenodd" d="M20 21C18.71 21 17.42 20.59 16.26 19.86C16.1 19.76 15.89 19.76 15.73 19.86C13.42 21.33 10.57 21.33 8.26 19.86C8.1 19.76 7.89 19.76 7.73 19.86C6.58 20.59 5.29 21 4 21H3C2.45 21 2 21.45 2 22C2 22.55 2.45 23 3 23H4C5.38 23 6.74 22.65 8 22.01C10.52 23.3 13.48 23.3 16 22.01C17.26 22.66 18.62 23 20 23H21C21.55 23 22 22.55 22 22C22 21.45 21.55 21 21 21H20ZM3.95 19H4C5.42 19 6.7 18.3 7.66 17.36C7.85 17.18 8.16 17.18 8.35 17.36C9.3 18.3 10.58 19 12 19C13.42 19 14.7 18.3 15.66 17.36C15.85 17.17 16.15 17.17 16.35 17.36C17.3 18.3 18.58 19 20 19H20.05L21.94 12.32C22.02 12.06 22 11.78 21.88 11.54C21.76 11.3 21.54 11.12 21.28 11.04L20 10.62V6C20 4.9 19.1 4 18 4H15V2C15 1.45 14.55 1 14 1H10C9.45 1 9 1.45 9 2V4H6C4.9 4 4 4.9 4 6V10.62L2.71 11.04C2.45 11.12 2.23 11.3 2.11 11.54C1.99 11.78 1.96 12.06 2.05 12.32L3.95 19ZM7 6H17C17.55 6 18 6.45 18 7V9.97L12.62 8.2C12.21 8.07 11.78 8.07 11.37 8.2L6 9.97V7C6 6.45 6.45 6 7 6Z" fill="#969696"/>
</svg>
