<svg width="24" height="24" viewBox="0 0 24 24" fill="none" xmlns="http://www.w3.org/2000/svg">
<path fill-rule="evenodd" clip-rule="evenodd" d="M7.28994 7.0002C7.73994 7.0002 7.95994 6.4602 7.63994 6.1502L5.34994 3.8502C5.14994 3.6502 4.83994 3.6502 4.63994 3.8502L2.34994 6.1502C2.03994 6.4602 2.25994 7.0002 2.70994 7.0002H3.99994V17.0002H2.70994C2.25994 17.0002 2.03994 17.5402 2.35994 17.8502L4.64994 20.1402C4.84994 20.3402 5.15994 20.3402 5.35994 20.1402L7.64994 17.8502C7.95994 17.5402 7.73994 17.0002 7.28994 17.0002H5.99994V7.0002H7.28994ZM10.9999 7.0002H20.9999C21.5499 7.0002 21.9999 6.5502 21.9999 6.0002C21.9999 5.4502 21.5499 5.0002 20.9999 5.0002H10.9999C10.4499 5.0002 9.99994 5.4502 9.99994 6.0002C9.99994 6.5502 10.4499 7.0002 10.9999 7.0002ZM20.9999 17.0002H10.9999C10.4499 17.0002 9.99994 17.4502 9.99994 18.0002C9.99994 18.5502 10.4499 19.0002 10.9999 19.0002H20.9999C21.5499 19.0002 21.9999 18.5502 21.9999 18.0002C21.9999 17.4502 21.5499 17.0002 20.9999 17.0002ZM20.9999 11.0002H10.9999C10.4499 11.0002 9.99994 11.4502 9.99994 12.0002C9.99994 12.5502 10.4499 13.0002 10.9999 13.0002H20.9999C21.5499 13.0002 21.9999 12.5502 21.9999 12.0002C21.9999 11.4502 21.5499 11.0002 20.9999 11.0002Z" fill="#969696"/>
</svg>
