<svg width="24" height="24" viewBox="0 0 24 24" fill="none" xmlns="http://www.w3.org/2000/svg">
<path fill-rule="evenodd" clip-rule="evenodd" d="M18.92 14.0002C18.42 14.0002 18.01 14.3702 17.94 14.8602C17.46 18.2302 14.17 20.7002 10.52 19.8202C8.27 19.2802 6.61 17.5502 6.13 15.2902C5.32 11.4202 8.27 8.00019 12 8.00019V10.7902C12 11.2402 12.54 11.4602 12.85 11.1402L16.64 7.35018C16.84 7.15018 16.84 6.84018 16.64 6.64018L12.85 2.85018C12.54 2.54018 12 2.76018 12 3.21018V6.00018C7.06 6.00018 3.16 10.4802 4.16 15.6002C4.76 18.7102 7.05999 21.1002 10.15 21.7902C14.98 22.8702 19.3 19.5902 19.92 15.1202C20.01 14.5302 19.52 14.0002 18.92 14.0002ZM10.54 16.2202C10.48 16.2702 10.42 16.3102 10.34 16.3402C10.26 16.3702 10.17 16.3802 10.07 16.3802C9.97999 16.3802 9.89999 16.3702 9.81999 16.3402C9.73999 16.3102 9.67999 16.2802 9.61999 16.2302C9.55999 16.1802 9.51999 16.1302 9.48999 16.0602C9.45999 15.9902 9.43999 15.9202 9.43999 15.8402H8.58999C8.58999 16.0502 8.62999 16.2302 8.70999 16.3902C8.78999 16.5502 8.89999 16.6702 9.03999 16.7702C9.17999 16.8702 9.32999 16.9502 9.49999 17.0002C9.66999 17.0502 9.84999 17.0702 10.03 17.0702C10.24 17.0702 10.44 17.0402 10.63 16.9902C10.82 16.9402 10.97 16.8502 11.11 16.7502C11.25 16.6502 11.35 16.5102 11.43 16.3602C11.51 16.2102 11.55 16.0302 11.55 15.8302C11.55 15.6002 11.49 15.3902 11.37 15.2202C11.25 15.0502 11.07 14.9202 10.83 14.8302C10.93 14.7802 11.03 14.7302 11.11 14.6602C11.19 14.5902 11.26 14.5202 11.31 14.4402C11.36 14.3602 11.41 14.2802 11.44 14.1902C11.47 14.1002 11.48 14.0102 11.48 13.9202C11.48 13.7202 11.44 13.5502 11.37 13.3902C11.3 13.2302 11.2 13.1102 11.07 13.0102C10.94 12.9102 10.79 12.8302 10.61 12.7802C10.43 12.7302 10.24 12.7002 10.02 12.7002C9.82999 12.7002 9.63999 12.7302 9.47999 12.7802C9.31999 12.8302 9.15999 12.9102 9.03999 13.0102C8.91999 13.1102 8.80999 13.2302 8.73999 13.3802C8.66999 13.5302 8.62999 13.6802 8.62999 13.8602H9.47999C9.47999 13.7902 9.49999 13.7202 9.52999 13.6602C9.55999 13.6002 9.59999 13.5502 9.64999 13.5102C9.69999 13.4702 9.75999 13.4402 9.82999 13.4102C9.89999 13.3802 9.96999 13.3802 10.05 13.3802C10.15 13.3802 10.23 13.3902 10.3 13.4202C10.37 13.4502 10.43 13.4802 10.48 13.5302C10.53 13.5802 10.56 13.6402 10.59 13.7002C10.62 13.7602 10.63 13.8402 10.63 13.9202C10.63 14.1002 10.58 14.2402 10.47 14.3502C10.36 14.4602 10.21 14.5102 9.98999 14.5102H9.55999V15.1702H10.01C10.12 15.1702 10.21 15.1802 10.3 15.2102C10.39 15.2402 10.46 15.2702 10.52 15.3202C10.58 15.3702 10.63 15.4402 10.66 15.5202C10.69 15.6002 10.71 15.7002 10.71 15.8102C10.71 15.9002 10.7 15.9802 10.67 16.0502C10.64 16.1202 10.59 16.1602 10.54 16.2202V16.2202ZM14.44 12.7802C14.26 12.7102 14.07 12.6802 13.85 12.6802C13.63 12.6802 13.44 12.7102 13.26 12.7802C13.08 12.8502 12.93 12.9602 12.81 13.1102C12.69 13.2602 12.58 13.4502 12.52 13.6802C12.46 13.9102 12.42 14.1802 12.42 14.5002V15.2402C12.42 15.5602 12.46 15.8402 12.53 16.0602C12.6 16.2802 12.7 16.4802 12.83 16.6302C12.96 16.7802 13.11 16.8902 13.29 16.9602C13.47 17.0302 13.66 17.0602 13.88 17.0602C14.1 17.0602 14.29 17.0302 14.47 16.9602C14.65 16.8902 14.8 16.7802 14.92 16.6302C15.04 16.4802 15.14 16.2902 15.21 16.0602C15.28 15.8302 15.31 15.5602 15.31 15.2402V14.5002C15.31 14.1802 15.27 13.9002 15.2 13.6802C15.13 13.4602 15.03 13.2602 14.9 13.1102C14.77 12.9602 14.62 12.8502 14.44 12.7802ZM14.45 15.3502C14.45 15.5402 14.44 15.7002 14.41 15.8302C14.38 15.9602 14.35 16.0702 14.3 16.1502C14.25 16.2302 14.19 16.2902 14.11 16.3202C14.03 16.3502 13.95 16.3702 13.86 16.3702C13.77 16.3702 13.68 16.3502 13.61 16.3202C13.54 16.2902 13.47 16.2302 13.42 16.1502C13.37 16.0702 13.33 15.9602 13.3 15.8302C13.27 15.7002 13.26 15.5402 13.26 15.3502V14.3802C13.26 14.1902 13.27 14.0302 13.3 13.9002C13.33 13.7702 13.36 13.6702 13.42 13.5902C13.48 13.5102 13.53 13.4502 13.61 13.4202C13.69 13.3902 13.77 13.3702 13.86 13.3702C13.95 13.3702 14.04 13.3902 14.11 13.4202C14.18 13.4502 14.25 13.5102 14.3 13.5902C14.35 13.6702 14.39 13.7702 14.42 13.9002C14.45 14.0302 14.46 14.1902 14.46 14.3802V15.3502H14.45Z" fill="#969696"/>
</svg>
