<svg width="24" height="24" viewBox="0 0 24 24" fill="none" xmlns="http://www.w3.org/2000/svg">
<path fill-rule="evenodd" clip-rule="evenodd" d="M8.00001 3.99986V4.88986L10 6.88986V3.99986H14V7.99986H11.11L13.11 9.99986H14V10.8899L16 12.8899V9.99986H20V13.9999H17.11L19.11 15.9999H20V16.8899L22 18.8899V3.99986C22 2.89986 21.1 1.99986 20 1.99986H5.11001L7.11001 3.99986H8.00001ZM16 3.99986H19C19.55 3.99986 20 4.44986 20 4.99986V7.99986H16V3.99986ZM22.16 21.8799L2.12001 1.83986C1.73001 1.44986 1.10001 1.44986 0.710011 1.83986C0.320011 2.22986 0.320011 2.85986 0.710011 3.24986L2.00001 4.54986V19.9999C2.00001 21.0999 2.90001 21.9999 4.00001 21.9999H19.45L20.75 23.2999C21.14 23.6899 21.77 23.6899 22.16 23.2999C22.55 22.9099 22.55 22.2699 22.16 21.8799ZM10 12.5499L11.45 13.9999H10V12.5499ZM4.00001 6.54986L5.45001 7.99986H4.00001V6.54986V6.54986ZM8.00001 19.9999H5.00001C4.45001 19.9999 4.00001 19.5499 4.00001 18.9999V15.9999H8.00001V19.9999ZM8.00001 13.9999H4.00001V9.99986H7.45001L8.00001 10.5499V13.9999ZM14 19.9999H10V15.9999H13.45L14 16.5499V19.9999ZM16 19.9999V18.5499L17.45 19.9999H16Z" fill="#969696"/>
</svg>
