<svg width="24" height="24" viewBox="0 0 24 24" fill="none" xmlns="http://www.w3.org/2000/svg">
<path fill-rule="evenodd" clip-rule="evenodd" d="M0.913845 7.7199V9.3999L3.68308 8.3999V17.9999H5.52923V5.9999H5.29846L0.913845 7.7199ZM22.8646 14.3699C22.7354 14.0899 22.5415 13.8399 22.2831 13.6299C22.0246 13.4199 21.72 13.2399 21.3508 13.0999C20.9815 12.9599 20.5662 12.8299 20.1046 12.7199C19.7815 12.6499 19.5138 12.5699 19.3015 12.4899C19.0892 12.4099 18.9231 12.3299 18.7938 12.2399C18.6646 12.1499 18.5815 12.0499 18.5354 11.9399C18.4892 11.8299 18.4615 11.6999 18.4615 11.5499C18.4615 11.4099 18.4892 11.2699 18.5446 11.1399C18.6 11.0099 18.6831 10.8899 18.7938 10.7999C18.9046 10.6999 19.0431 10.6199 19.2092 10.5599C19.3754 10.4999 19.5785 10.4699 19.8 10.4699C20.0308 10.4699 20.2338 10.5099 20.4092 10.5799C20.5846 10.6499 20.7323 10.7499 20.8523 10.8699C20.9723 10.9899 21.0554 11.1299 21.12 11.2899C21.1754 11.4499 21.2123 11.6099 21.2123 11.7799H23.0123C23.0123 11.3899 22.9385 11.0299 22.7908 10.6899C22.6431 10.3499 22.4308 10.0599 22.1538 9.8099C21.8769 9.5599 21.5446 9.3699 21.1477 9.2199C20.7508 9.0699 20.2985 8.9999 19.8 8.9999C19.3292 8.9999 18.8954 9.0699 18.5169 9.2099C18.1385 9.3499 17.8062 9.5399 17.5385 9.7799C17.2708 10.0199 17.0677 10.2999 16.92 10.6199C16.7723 10.9399 16.7077 11.2699 16.7077 11.6299C16.7077 11.9899 16.7815 12.3199 16.92 12.5899C17.0585 12.8699 17.2523 13.1099 17.5108 13.3199C17.76 13.5299 18.0646 13.6999 18.4154 13.8499C18.7662 13.9899 19.1631 14.1099 19.5877 14.2099C19.9477 14.2899 20.2431 14.3799 20.4646 14.4699C20.6862 14.5599 20.8615 14.6599 20.9908 14.7599C21.1108 14.8599 21.1938 14.9799 21.24 15.0999C21.2862 15.2199 21.3046 15.3499 21.3046 15.4899C21.3046 15.8099 21.1846 16.0599 20.9354 16.2599C20.6862 16.4599 20.3262 16.5499 19.8554 16.5499C19.6523 16.5499 19.4585 16.5299 19.2646 16.4699C19.0708 16.4199 18.8954 16.3399 18.7477 16.2299C18.5908 16.1199 18.4708 15.9699 18.3692 15.7899C18.2677 15.6099 18.2123 15.3799 18.2031 15.1199H16.4585C16.4585 15.4799 16.5323 15.8299 16.68 16.1699C16.8277 16.5099 17.04 16.8199 17.3262 17.0999C17.6123 17.3699 17.9631 17.5899 18.3877 17.7599C18.8123 17.9299 19.2923 18.0099 19.8462 18.0099C20.3354 18.0099 20.7785 17.9499 21.1754 17.8199C21.5723 17.6899 21.9138 17.5099 22.2 17.2799C22.4862 17.0499 22.6985 16.7699 22.8554 16.4499C23.0123 16.1299 23.0862 15.7799 23.0862 15.3899C23.0677 14.9899 23.0031 14.6499 22.8646 14.3699ZM13.6708 7.0499C13.3569 6.6499 12.9785 6.3499 12.5354 6.1699C12.1015 5.9899 11.6031 5.8999 11.0677 5.8999C10.5323 5.8999 10.0431 5.9899 9.6 6.1699C9.15692 6.3499 8.77846 6.6399 8.46461 7.0499C8.15077 7.4599 7.91077 7.9799 7.73538 8.6399C7.56923 9.2899 7.47692 10.0899 7.47692 11.0299V12.9499C7.47692 13.8899 7.56 14.6899 7.73538 15.3399C7.91077 15.9999 8.15077 16.5299 8.47385 16.9399C8.78769 17.3499 9.16615 17.6499 9.60923 17.8299C10.0523 18.0099 10.5415 18.1099 11.0769 18.1099C11.6215 18.1099 12.1108 18.0199 12.5446 17.8299C12.9877 17.6499 13.3569 17.3499 13.6708 16.9399C13.9846 16.5299 14.2246 15.9999 14.3908 15.3399C14.5569 14.6899 14.6492 13.8899 14.6492 12.9499V11.0299C14.6492 10.0899 14.5662 9.2899 14.3908 8.6399C14.2246 7.9799 13.9846 7.4499 13.6708 7.0499ZM12.8215 13.2199C12.8215 13.8199 12.7846 14.3299 12.7108 14.7499C12.6369 15.1699 12.5262 15.5099 12.3785 15.7699C12.2308 16.0299 12.0462 16.2199 11.8338 16.3399C11.6215 16.4599 11.3631 16.5199 11.0769 16.5199C10.8 16.5199 10.5415 16.4599 10.32 16.3399C10.0985 16.2199 9.91385 16.0299 9.76615 15.7699C9.61846 15.5099 9.49846 15.1699 9.41538 14.7499C9.33231 14.3299 9.29538 13.8199 9.29538 13.2199V10.7199C9.29538 10.1199 9.33231 9.6099 9.41538 9.1999C9.49846 8.7899 9.60923 8.4599 9.76615 8.1999C9.91385 7.9499 10.0985 7.7699 10.32 7.6499C10.5415 7.5399 10.7908 7.4799 11.0677 7.4799C11.3538 7.4799 11.6031 7.5399 11.8154 7.6499C12.0369 7.7599 12.2215 7.9399 12.3692 8.1999C12.5169 8.4499 12.6369 8.7799 12.7108 9.1899C12.7846 9.5999 12.8308 10.1099 12.8308 10.7099V13.2199H12.8215Z" fill="#969696"/>
</svg>
