<svg width="24" height="24" viewBox="0 0 24 24" fill="none" xmlns="http://www.w3.org/2000/svg">
<g id="invert_colors_off">
<path id="Icon" fill-rule="evenodd" clip-rule="evenodd" d="M12 5.09977V9.14977L19.4 16.5498C20.55 13.6698 19.99 10.2698 17.65 7.93977L12.71 2.98977C12.32 2.59977 11.69 2.59977 11.3 2.98977L8.55996 5.70977L9.96996 7.11977L12 5.09977ZM3.68996 5.07977C3.29996 5.46977 3.29996 6.09977 3.68996 6.48977L5.76996 8.56977C3.22996 11.7098 3.41996 16.3198 6.33996 19.2498C7.89996 20.7998 9.94996 21.5798 12 21.5798C13.78 21.5798 15.56 20.9898 17.02 19.8098L19.02 21.8098C19.41 22.1998 20.04 22.1998 20.43 21.8098C20.82 21.4198 20.82 20.7898 20.43 20.3998L5.10996 5.07977C4.71996 4.68977 4.07996 4.68977 3.68996 5.07977ZM12 19.5898C10.4 19.5898 8.88996 18.9698 7.75996 17.8298C6.61996 16.6898 5.99996 15.1898 5.99996 13.5898C5.99996 12.2698 6.42996 11.0298 7.20996 9.99977L12 14.7898V19.5898Z" fill="#969696"/>
</g>
</svg>
