<svg width="24" height="24" viewBox="0 0 24 24" fill="none" xmlns="http://www.w3.org/2000/svg">
<path fill-rule="evenodd" clip-rule="evenodd" d="M16.12 11.5C16.51 10.83 16.03 10 15.26 10H13.39L15.67 12.28L16.12 11.5ZM16.28 3.45C16.61 2.78 16.13 2 15.38 2H8C7.45 2 7 2.45 7 3V3.61L13.13 9.74L16.28 3.45ZM18.44 17.88L4.12 3.56C3.73 3.17 3.1 3.17 2.71 3.56C2.32 3.95 2.32 4.58 2.71 4.97L7 9.27V12C7 12.55 7.45 13 8 13H10V20.15C10 20.66 10.67 20.84 10.93 20.4L13.58 15.85L17.02 19.29C17.41 19.68 18.04 19.68 18.43 19.29C18.83 18.9 18.83 18.27 18.44 17.88Z" fill="#969696"/>
</svg>
