<svg width="24" height="24" viewBox="0 0 24 24" fill="none" xmlns="http://www.w3.org/2000/svg">
<g id="mediation">
<path id="Icon" d="M18.0002 13H12.9402C12.6002 16.1 10.6802 18.72 8.00016 20.05C7.97016 21.86 6.34016 23.28 4.45016 22.95C3.25016 22.74 2.26016 21.75 2.05016 20.55C1.71016 18.65 3.16016 17 5.00016 17C5.95016 17 6.78016 17.45 7.33016 18.14C9.23016 17.11 10.5902 15.23 10.9102 13H7.81016C7.33016 14.34 5.95016 15.24 4.39016 14.94C3.21016 14.71 2.26016 13.74 2.04016 12.56C1.70016 10.66 3.16016 9 5.00016 9C6.30016 9 7.40016 9.84 7.82016 11H10.9202C10.6002 8.77 9.23016 6.9 7.33016 5.86C6.69016 6.66 5.66016 7.14 4.52016 6.96C3.29016 6.77 2.26016 5.77 2.05016 4.54C1.72016 2.65 3.17016 1 5.00016 1C6.64016 1 7.96016 2.31 7.99016 3.95C10.6702 5.28 12.5902 7.9 12.9302 11H18.0002V9.21C18.0002 8.76 18.5402 8.54 18.8502 8.86L21.6402 11.65C21.8402 11.85 21.8402 12.16 21.6402 12.36L18.8502 15.15C18.5402 15.46 18.0002 15.24 18.0002 14.79V13Z" fill="#969696"/>
</g>
</svg>
