<svg width="24" height="24" viewBox="0 0 24 24" fill="none" xmlns="http://www.w3.org/2000/svg">
<path fill-rule="evenodd" clip-rule="evenodd" d="M15 11.6V6C15 4.34 13.66 3 12 3C10.46 3 9.21 4.16 9.04 5.65L15 11.6ZM18.08 12C17.67 12 17.31 12.3 17.25 12.71C17.2 13.03 17.13 13.35 17.03 13.64L18.3 14.91C18.6 14.31 18.82 13.66 18.93 12.97C19 12.46 18.6 12 18.08 12ZM3.71 4.56C3.32 4.95 3.32 5.58 3.71 5.97L9 11.27V11.7C9 12.89 9.6 14.02 10.63 14.61C11.38 15.04 12.04 15.05 12.65 14.92L14.31 16.58C13.6 16.91 12.81 17.1 12 17.1C9.46 17.1 7.12 15.33 6.75 12.71C6.69 12.3 6.33 12 5.92 12C5.4 12 5 12.46 5.07 12.97C5.53 15.93 8.03 18.27 11 18.72V21C11 21.55 11.45 22 12 22C12.55 22 13 21.55 13 21V18.72C13.91 18.59 14.77 18.27 15.55 17.82L19.04 21.31C19.43 21.7 20.06 21.7 20.45 21.31C20.84 20.92 20.84 20.29 20.45 19.9L5.12 4.56C4.73 4.17 4.1 4.17 3.71 4.56Z" fill="#969696"/>
</svg>
