<svg width="24" height="24" viewBox="0 0 24 24" fill="none" xmlns="http://www.w3.org/2000/svg">
<path fill-rule="evenodd" clip-rule="evenodd" d="M21 16.0002H9C8.45 16.0002 8 15.5502 8 15.0002V4.0002H8.79C9.24 4.0002 9.46 3.4602 9.14 3.1502L7.35 1.3502C7.15 1.1502 6.84 1.1502 6.64 1.3502L4.85 3.1502C4.54 3.4602 4.76 4.0002 5.21 4.0002H6V6.0002H3C2.45 6.0002 2 6.4502 2 7.0002C2 7.5502 2.45 8.0002 3 8.0002H6V16.0002C6 17.1002 6.9 18.0002 8 18.0002H16V20.0002H15.21C14.76 20.0002 14.54 20.5402 14.86 20.8502L16.65 22.6402C16.85 22.8402 17.16 22.8402 17.36 22.6402L19.15 20.8502C19.47 20.5402 19.24 20.0002 18.8 20.0002H18V18.0002H21C21.55 18.0002 22 17.5502 22 17.0002C22 16.4502 21.55 16.0002 21 16.0002ZM16 14.0002H18V8.0002C18 6.9002 17.1 6.0002 16 6.0002H10V8.0002H15C15.55 8.0002 16 8.4502 16 9.0002V14.0002Z" fill="#969696"/>
</svg>
