<svg width="24" height="24" viewBox="0 0 24 24" fill="none" xmlns="http://www.w3.org/2000/svg">
<g id="receipt">
<path id="Icon" fill-rule="evenodd" clip-rule="evenodd" d="M21 2.2102C20.87 2.2102 20.74 2.2602 20.65 2.3602L19.86 3.1502C19.66 3.3502 19.35 3.3502 19.15 3.1502L18.36 2.3602C18.16 2.1602 17.85 2.1602 17.65 2.3602L16.86 3.1502C16.66 3.3502 16.35 3.3502 16.15 3.1502L15.36 2.3602C15.16 2.1602 14.85 2.1602 14.65 2.3602L13.86 3.1502C13.66 3.3502 13.35 3.3502 13.15 3.1502L12.36 2.3602C12.16 2.1602 11.85 2.1602 11.65 2.3602L10.86 3.1502C10.66 3.3502 10.35 3.3502 10.15 3.1502L9.35 2.3502C9.15 2.1502 8.84 2.1502 8.64 2.3502L7.85 3.1502C7.65 3.3502 7.34 3.3502 7.14 3.1502L6.35 2.3502C6.15 2.1502 5.84 2.1502 5.64 2.3502L4.85 3.1502C4.65 3.3502 4.34 3.3502 4.14 3.1502L3.35 2.3502C3.26 2.2602 3.13 2.2102 3 2.2102V21.8002C3.13 21.8002 3.26 21.7502 3.35 21.6502L4.14 20.8602C4.34 20.6602 4.65 20.6602 4.85 20.8602L5.64 21.6502C5.84 21.8502 6.15 21.8502 6.35 21.6502L7.14 20.8602C7.34 20.6602 7.65 20.6602 7.85 20.8602L8.64 21.6502C8.84 21.8502 9.15 21.8502 9.35 21.6502L10.14 20.8602C10.34 20.6602 10.65 20.6602 10.85 20.8602L11.64 21.6502C11.84 21.8502 12.15 21.8502 12.35 21.6502L13.14 20.8602C13.34 20.6602 13.65 20.6602 13.85 20.8602L14.64 21.6502C14.84 21.8502 15.15 21.8502 15.35 21.6502L16.14 20.8602C16.34 20.6602 16.65 20.6602 16.85 20.8602L17.64 21.6502C17.84 21.8502 18.15 21.8502 18.35 21.6502L19.14 20.8602C19.34 20.6602 19.65 20.6602 19.85 20.8602L20.64 21.6502C20.74 21.7502 20.87 21.8002 20.99 21.8002V2.2102H21ZM17 17.0002H7C6.45 17.0002 6 16.5502 6 16.0002C6 15.4502 6.45 15.0002 7 15.0002H17C17.55 15.0002 18 15.4502 18 16.0002C18 16.5502 17.55 17.0002 17 17.0002ZM17 13.0002H7C6.45 13.0002 6 12.5502 6 12.0002C6 11.4502 6.45 11.0002 7 11.0002H17C17.55 11.0002 18 11.4502 18 12.0002C18 12.5502 17.55 13.0002 17 13.0002ZM17 9.0002H7C6.45 9.0002 6 8.5502 6 8.0002C6 7.4502 6.45 7.0002 7 7.0002H17C17.55 7.0002 18 7.4502 18 8.0002C18 8.5502 17.55 9.0002 17 9.0002Z" fill="#969696"/>
</g>
</svg>
