<svg width="24" height="24" viewBox="0 0 24 24" fill="none" xmlns="http://www.w3.org/2000/svg">
<path fill-rule="evenodd" clip-rule="evenodd" d="M21 16.9999H20V10.9999C20 9.8999 19.1 8.9999 18 8.9999H7V8.2599C7 7.7999 6.44 7.5599 6.11 7.8899L4.37 9.6299C4.17 9.8299 4.17 10.1599 4.37 10.3699L6.11 12.1099C6.44 12.4399 7 12.2099 7 11.7399V10.9999H11V13.9999H5C4.45 13.9999 4 14.4499 4 14.9999V16.9999C4 18.0999 4.9 18.9999 6 18.9999H8C8 20.6599 9.34 21.9999 11 21.9999C12.66 21.9999 14 20.6599 14 18.9999H21C21.55 18.9999 22 18.5499 22 17.9999C22 17.4499 21.55 16.9999 21 16.9999ZM11 19.9999C10.45 19.9999 10 19.5499 10 18.9999C10 18.4499 10.45 17.9999 11 17.9999C11.55 17.9999 12 18.4499 12 18.9999C12 19.5499 11.55 19.9999 11 19.9999ZM18 13.9999H14V10.9999H17C17.55 10.9999 18 11.4499 18 11.9999V13.9999ZM10 5.9999H17V6.7399C17 7.1999 17.56 7.4399 17.89 7.1099L19.63 5.3699C19.83 5.1699 19.83 4.8399 19.63 4.6299L17.89 2.8899C17.56 2.5599 17 2.7899 17 3.2599V3.9999H10C9.45 3.9999 9 4.4499 9 4.9999C9 5.5499 9.45 5.9999 10 5.9999Z" fill="#969696"/>
</svg>
