<svg width="24" height="24" viewBox="0 0 24 24" fill="none" xmlns="http://www.w3.org/2000/svg">
<g id="settings_ethernet">
<path id="Icon" fill-rule="evenodd" clip-rule="evenodd" d="M6.99993 6.12006C6.56993 5.77006 5.93993 5.82006 5.58993 6.25006L1.34993 11.3601C1.03993 11.7301 1.03993 12.2701 1.34993 12.6401L5.58993 17.7501C5.93993 18.1801 6.56993 18.2301 6.99993 17.8801C7.42993 17.5301 7.47993 16.9001 7.12993 16.4701L3.41993 12.0001L7.12993 7.53006C7.47993 7.10006 7.42993 6.47006 6.99993 6.12006ZM6.99993 13.0001H8.99993V11.0001H6.99993V13.0001ZM16.9999 11.0001H14.9999V13.0001H16.9999V11.0001ZM10.9999 13.0001H12.9999V11.0001H10.9999V13.0001ZM16.9999 6.12006C16.5699 6.47006 16.5199 7.10006 16.8699 7.53006L20.5799 12.0001L16.8699 16.4701C16.5199 16.9001 16.5799 17.5301 16.9999 17.8801C17.4299 18.2301 18.0599 18.1801 18.4099 17.7501L22.6499 12.6401C22.9599 12.2701 22.9599 11.7301 22.6499 11.3601L18.4099 6.25006C18.0599 5.83006 17.4199 5.77006 16.9999 6.12006V6.12006Z" fill="#969696"/>
</g>
</svg>
