<svg width="24" height="24" viewBox="0 0 24 24" fill="none" xmlns="http://www.w3.org/2000/svg">
<path fill-rule="evenodd" clip-rule="evenodd" d="M23.64 6.99979C23.19 6.65979 18.71 2.99979 12 2.99979C10.68 2.99979 9.44999 3.13979 8.30999 3.37979L18.43 13.4998L23.64 6.99979ZM4.11999 2.00979C3.72999 1.61979 3.09999 1.61979 2.70999 2.00979C2.31999 2.39979 2.31999 3.02979 2.70999 3.41979L4.05999 4.76979C1.90999 5.75979 0.589985 6.81978 0.359985 6.99978L10.44 19.5598C11.24 20.5598 12.76 20.5598 13.56 19.5598L15.91 16.6298L18.52 19.2398C18.91 19.6298 19.54 19.6298 19.93 19.2398C20.32 18.8498 20.32 18.2198 19.93 17.8298L4.11999 2.00979Z" fill="#969696"/>
</svg>
