<svg width="24" height="24" viewBox="0 0 24 24" fill="none" xmlns="http://www.w3.org/2000/svg">
<path fill-rule="evenodd" clip-rule="evenodd" d="M21 17.9998C21.55 17.9998 22 17.5498 22 16.9998V10.9998C22 10.4498 21.55 9.99977 21 9.99977C20.45 9.99977 20 10.4498 20 10.9998V16.9998C20 17.5498 20.45 17.9998 21 17.9998ZM20 21.9998H22V19.9998H20V21.9998ZM4.40999 21.9998H18V10.9998C18 9.33977 19.34 7.99977 21 7.99977H22V4.40977C22 3.51977 20.92 3.06977 20.29 3.69977L3.70999 20.2898C3.07999 20.9198 3.51999 21.9998 4.40999 21.9998Z" fill="#969696"/>
</svg>
