<svg width="24" height="24" viewBox="0 0 24 24" fill="none" xmlns="http://www.w3.org/2000/svg">
<path fill-rule="evenodd" clip-rule="evenodd" d="M10 8.49986V15.4999C10 15.9099 10.47 16.1499 10.8 15.8999L15.47 12.3999C15.74 12.1999 15.74 11.7999 15.47 11.5999L10.8 8.09986C10.47 7.84986 10 8.08986 10 8.49986ZM11 3.22986C11 2.58986 10.41 2.09986 9.79 2.23986C8.67 2.49986 7.61 2.93986 6.67 3.53986C6.14 3.87986 6.06 4.63986 6.51 5.08986C6.83 5.40986 7.34 5.48986 7.72 5.24986C8.49 4.75986 9.34 4.39986 10.26 4.19986C10.7 4.09986 11 3.68986 11 3.22986V3.22986ZM5.1 6.50986C4.64 6.05986 3.89 6.12986 3.55 6.66986C2.95 7.60986 2.51 8.66986 2.25 9.78986C2.11 10.4099 2.59 10.9999 3.23 10.9999C3.68 10.9999 4.1 10.6999 4.19 10.2599C4.39 9.34986 4.76 8.48986 5.24 7.72986C5.5 7.33986 5.42 6.82986 5.1 6.50986ZM3.23 12.9999C2.59 12.9999 2.1 13.5899 2.24 14.2099C2.5 15.3299 2.94 16.3799 3.54 17.3299C3.88 17.8699 4.64 17.9399 5.09 17.4899C5.41 17.1699 5.49 16.6599 5.24 16.2799C4.75 15.5199 4.39 14.6699 4.19 13.7499C4.1 13.2999 3.69 12.9999 3.23 12.9999V12.9999ZM6.67 20.4499C7.62 21.0499 8.67 21.4899 9.79 21.7499C10.41 21.8899 11 21.3999 11 20.7699C11 20.3199 10.7 19.8999 10.26 19.8099C9.35 19.6099 8.49 19.2399 7.73 18.7599C7.34 18.5199 6.84 18.5899 6.52 18.9199C6.06 19.3599 6.13 20.1099 6.67 20.4499ZM22 11.9999C22 16.7299 18.7 20.7099 14.27 21.7399C13.65 21.8899 13.05 21.3999 13.05 20.7599C13.05 20.2999 13.36 19.8999 13.8 19.7899C17.35 18.9699 20 15.7899 20 11.9999C20 8.20986 17.35 5.02986 13.8 4.20986C13.36 4.10986 13.05 3.69986 13.05 3.23986C13.05 2.59986 13.65 2.10986 14.27 2.25986C18.7 3.28986 22 7.26986 22 11.9999Z" fill="#969696"/>
</svg>
