<svg width="24" height="24" viewBox="0 0 24 24" fill="none" xmlns="http://www.w3.org/2000/svg">
<path fill-rule="evenodd" clip-rule="evenodd" d="M10 11.0001H12.63L8.91001 15.3501C8.36001 16.0001 8.82001 17.0001 9.67001 17.0001H14C14.55 17.0001 15 16.5501 15 16.0001C15 15.4501 14.55 15.0001 14 15.0001H11.37L15.09 10.6501C15.64 10.0001 15.18 9.00014 14.33 9.00014H10C9.45001 9.00014 9.00001 9.45014 9.00001 10.0001C9.00001 10.5501 9.45001 11.0001 10 11.0001ZM21.3 6.42014C20.95 6.84014 20.32 6.90014 19.89 6.55014L16.82 3.99014C16.4 3.63014 16.34 3.00014 16.7 2.58014C17.05 2.16014 17.68 2.10014 18.11 2.45014L21.18 5.01014C21.6 5.37014 21.66 6.00014 21.3 6.42014ZM2.70001 6.42014C3.05001 6.85014 3.68001 6.90014 4.10001 6.55014L7.17001 3.99014C7.60001 3.63014 7.66001 3.00014 7.30001 2.58014C6.95001 2.15014 6.32001 2.10014 5.90001 2.45014L2.82001 5.01014C2.40001 5.37014 2.34001 6.00014 2.70001 6.42014ZM12 6.00014C15.86 6.00014 19 9.14014 19 13.0001C19 16.8601 15.86 20.0001 12 20.0001C8.14001 20.0001 5.00001 16.8601 5.00001 13.0001C5.00001 9.14014 8.14001 6.00014 12 6.00014V6.00014ZM12 4.00014C7.03001 4.00014 3.00001 8.03014 3.00001 13.0001C3.00001 17.9701 7.03001 22.0001 12 22.0001C16.97 22.0001 21 17.9701 21 13.0001C21 8.03014 16.97 4.00014 12 4.00014Z" fill="#969696"/>
</svg>
