<svg width="24" height="24" viewBox="0 0 24 24" fill="none" xmlns="http://www.w3.org/2000/svg">
<path fill-rule="evenodd" clip-rule="evenodd" d="M19.65 9.04L14.81 8.62L12.92 4.17C12.58 3.36 11.42 3.36 11.08 4.17L9.18995 8.63L4.35995 9.04C3.47995 9.11 3.11995 10.21 3.78995 10.79L7.45995 13.97L6.35995 18.69C6.15995 19.55 7.08995 20.23 7.84995 19.77L12 17.27L16.15 19.78C16.91 20.24 17.84 19.56 17.64 18.7L16.54 13.97L20.21 10.79C20.88 10.21 20.5299 9.11 19.65 9.04ZM12 15.4V6.1L13.71 10.14L18.09 10.52L14.77 13.4L15.77 17.68L12 15.4Z" fill="#969696"/>
</svg>
