<svg width="24" height="24" viewBox="0 0 24 24" fill="none" xmlns="http://www.w3.org/2000/svg">
<g id="text_rotation_angleup">
<path id="Icon" d="M17.6099 9.84986L18.1699 10.4099L9.68991 18.8999C9.29991 19.2899 9.29991 19.9199 9.68991 20.3099C10.0799 20.6999 10.7099 20.6999 11.0999 20.3099L19.5899 11.8199L20.1499 12.3799C20.4599 12.6999 20.9999 12.4799 20.9999 12.0399V9.49986C20.9999 9.21986 20.7799 8.99986 20.4999 8.99986H17.9599C17.5199 8.99986 17.2999 9.53986 17.6099 9.84986V9.84986ZM8.47991 12.7499L12.0199 9.20986L13.6199 9.87986C13.9799 10.0299 14.3899 9.94986 14.6699 9.66986C15.1599 9.17986 14.9899 8.35986 14.3499 8.09986L5.25991 4.49986C4.82991 4.33986 4.34991 4.43986 4.02991 4.75986C3.70991 5.07986 3.60991 5.55986 3.77991 5.98986L7.38991 15.0799C7.63991 15.7199 8.46991 15.8899 8.95991 15.3999C9.23991 15.1199 9.31991 14.7099 9.16991 14.3499L8.47991 12.7499V12.7499ZM7.65991 11.0299L5.42991 6.15986L10.2999 8.38986L7.65991 11.0299V11.0299Z" fill="#969696"/>
</g>
</svg>
