<svg width="24" height="24" viewBox="0 0 24 24" fill="none" xmlns="http://www.w3.org/2000/svg">
<g id="text_rotation_angledown">
<path id="Icon" d="M15 20.5002V17.9602C15 17.5102 14.46 17.2902 14.15 17.6102L13.59 18.1702L5.09996 9.68015C4.70996 9.29015 4.07996 9.29015 3.68996 9.68015C3.29996 10.0702 3.29996 10.7002 3.68996 11.0902L12.18 19.5802L11.62 20.1402C11.3 20.4602 11.52 21.0002 11.96 21.0002H14.5C14.78 21.0002 15 20.7702 15 20.5002V20.5002ZM11.25 8.48015L14.79 12.0202L14.12 13.6202C13.97 13.9802 14.05 14.3902 14.33 14.6702C14.82 15.1602 15.64 14.9902 15.9 14.3502L19.51 5.26015C19.68 4.84015 19.58 4.35015 19.26 4.03015C18.94 3.71015 18.46 3.61015 18.03 3.78015L8.92996 7.38015C8.28996 7.63015 8.11996 8.46015 8.60996 8.95015C8.87996 9.22015 9.28996 9.30015 9.64996 9.15015L11.25 8.48015V8.48015ZM17.84 5.43015L15.61 10.3002L12.97 7.66015L17.84 5.43015V5.43015Z" fill="#969696"/>
</g>
</svg>
