<svg width="24" height="24" viewBox="0 0 24 24" fill="none" xmlns="http://www.w3.org/2000/svg">
<path fill-rule="evenodd" clip-rule="evenodd" d="M12.0001 12.0001C12.0001 9.00012 14.5001 6.50012 17.5001 6.50012C20.0701 6.50012 22.2701 8.33012 22.8501 10.7401C23.0001 11.3801 22.5301 12.0001 21.8801 12.0001H12.0001ZM12.0001 12.0001C12.0001 15.0001 9.50012 17.5001 6.50012 17.5001C3.93012 17.5001 1.73012 15.6701 1.15012 13.2601C1.00012 12.6201 1.47012 12.0001 2.12012 12.0001H12.0001ZM12.0001 12.0001C9.00012 12.0001 6.50012 9.50012 6.50012 6.50012C6.50012 3.93012 8.33012 1.73012 10.7401 1.15012C11.3801 1.00012 12.0001 1.47012 12.0001 2.12012V12.0001ZM12.0001 12.0001C15.0001 12.0001 17.5001 14.5001 17.5001 17.5001C17.5001 20.0701 15.6701 22.2701 13.2601 22.8501C12.6201 23.0001 12.0001 22.5301 12.0001 21.8801V12.0001Z" fill="#969696"/>
</svg>
