<svg width="24" height="24" viewBox="0 0 24 24" fill="none" xmlns="http://www.w3.org/2000/svg">
<path fill-rule="evenodd" clip-rule="evenodd" d="M4.25 19.7898C4.64 20.1798 5.27 20.1798 5.66 19.7898L6.05 19.3998C6.44 19.0098 6.43 18.3798 6.05 17.9998L6.04 17.9898C5.65 17.5998 5.02 17.5998 4.63 17.9898L4.24 18.3798C3.86 18.7798 3.86 19.3998 4.25 19.7898ZM11.99 22.9998H12C12.55 22.9998 12.99 22.5598 12.99 22.0098V21.0498C12.99 20.4998 12.55 20.0598 12 20.0598H11.99C11.44 20.0598 11 20.4998 11 21.0498V22.0098C11 22.5598 11.44 22.9998 11.99 22.9998ZM3.01 11.0498H1.99C1.44 11.0498 1 11.4898 1 12.0398V12.0498C1 12.5998 1.44 13.0398 1.99 13.0398H3C3.55 13.0398 3.99 12.5998 3.99 12.0498V12.0398C4 11.4898 3.56 11.0498 3.01 11.0498ZM15 6.8598V3.0498C15 2.4998 14.55 2.0498 14 2.0498H10C9.45 2.0498 9 2.4998 9 3.0498V6.8598C6.96 8.0398 5.68 10.3798 6.07 12.9898C6.47 15.5998 8.63 17.6898 11.25 18.0098C14.89 18.4498 18 15.6098 18 12.0598C18 9.8298 16.79 7.8998 15 6.8598ZM20 12.0398V12.0498C20 12.5998 20.44 13.0398 20.99 13.0398H22C22.55 13.0398 22.99 12.5998 22.99 12.0498V12.0398C22.99 11.4898 22.55 11.0498 22 11.0498H20.99C20.44 11.0498 20 11.4898 20 12.0398ZM17.94 19.4098L18.33 19.7998C18.72 20.1898 19.35 20.1898 19.74 19.7998C20.13 19.4098 20.13 18.7798 19.74 18.3898L19.35 17.9998C18.96 17.6098 18.33 17.6198 17.95 17.9998C17.55 18.3998 17.55 19.0198 17.94 19.4098Z" fill="#969696"/>
</svg>
