<svg width="24" height="24" viewBox="0 0 24 24" fill="none" xmlns="http://www.w3.org/2000/svg">
<g id="24px">
<path id="Icon" d="M12.0001 2C13.1001 2 14.0001 2.9 14.0001 4C14.0001 5.1 13.1001 6 12.0001 6C10.9001 6 10.0001 5.1 10.0001 4C10.0001 2.9 10.9001 2 12.0001 2ZM10.0001 20C8.34012 20 7.00012 18.66 7.00012 17C7.00012 15.69 7.84012 14.59 9.00012 14.17V12.1C6.72012 12.56 5.00012 14.58 5.00012 17C5.00012 19.76 7.24012 22 10.0001 22C12.4201 22 14.4401 20.28 14.9001 18H12.8301C12.4201 19.16 11.3101 20 10.0001 20ZM20.4901 20.49L3.51012 3.51C3.12012 3.12 2.49012 3.12 2.10012 3.51C1.71012 3.9 1.71012 4.53 2.10012 4.92L10.0001 12.82V15C10.0001 16.1 10.9001 17 12.0001 17H14.1701L19.0701 21.9C19.4601 22.29 20.0901 22.29 20.4801 21.9C20.8801 21.51 20.8801 20.88 20.4901 20.49ZM18.1601 10.93C16.9101 10.72 15.7301 10.05 14.9301 9.17L13.6401 7.74C13.4001 7.5 13.2001 7.38 13.0101 7.28C12.6501 7.09 12.2901 6.98 11.8101 7.02C11.3201 7.06 10.9001 7.29 10.5801 7.63L14.0001 11.05C15.0001 11.88 16.4001 12.59 17.8001 12.87C18.4201 13 19.0001 12.53 19.0001 11.9C19.0001 11.42 18.6401 11.01 18.1601 10.93Z" fill="#969696"/>
</g>
</svg>
