<svg width="24" height="24" viewBox="0 0 24 24" fill="none" xmlns="http://www.w3.org/2000/svg">
<path fill-rule="evenodd" clip-rule="evenodd" d="M19.64 15.58C20.31 15.79 21 15.29 21 14.58C21 14.22 20.81 13.89 20.51 13.69L13 9V3.5C13 2.67 12.33 2 11.5 2C10.67 2 10 2.67 10 3.5V6.61L18.65 15.26L19.64 15.58V15.58ZM18.73 21L20.14 19.59L4.41 3.86L3 5.27L7.99 10.26L2.49 13.7C2.19 13.88 2 14.22 2 14.58C2 15.28 2.68 15.79 3.36 15.58L10 13.5V19L8.2 20.35C8.07 20.44 8 20.59 8 20.75V21.34C8 21.67 8.32 21.91 8.64 21.82L11.5 21L14.36 21.82C14.68 21.91 15 21.67 15 21.34V20.75C15 20.59 14.93 20.44 14.8 20.35L13 19V15.27L18.73 21Z" fill="#969696"/>
</svg>
