<svg width="24" height="24" viewBox="0 0 24 24" fill="none" xmlns="http://www.w3.org/2000/svg">
<g id="alarm_off">
<path id="Icon" fill-rule="evenodd" clip-rule="evenodd" d="M10.0401 6.28992C10.6601 6.10992 11.3201 5.99992 12.0001 5.99992C15.8601 5.99992 19.0001 9.13992 19.0001 12.9999C19.0001 13.6799 18.8901 14.3399 18.7101 14.9599L20.2701 16.5199C20.7401 15.4399 21.0001 14.2499 21.0001 12.9999C21.0001 8.02992 16.9701 3.99992 12.0001 3.99992C10.7501 3.99992 9.56007 4.25992 8.47007 4.71992L10.0401 6.28992V6.28992ZM3.71007 2.78992C3.33007 2.40992 2.71007 2.40992 2.32007 2.78992L2.30007 2.81992C1.91007 3.20992 1.91007 3.82992 2.30007 4.20992L2.98007 4.88992L2.81007 5.02992C2.39007 5.36992 2.34007 5.98992 2.68007 6.40992L2.71007 6.43992C3.06007 6.85992 3.67007 6.90992 4.09007 6.55992L4.40007 6.30992L5.20007 7.10992C3.83007 8.68992 3.00007 10.7499 3.00007 12.9999C3.00007 17.9699 7.03007 21.9999 12.0001 21.9999C14.2501 21.9999 16.3101 21.1699 17.8901 19.7999L19.3001 21.2099C19.6801 21.5899 20.3001 21.5899 20.6901 21.2099L20.7201 21.1799C21.1001 20.7999 21.1001 20.1799 20.7201 19.7899L3.71007 2.78992ZM12.0001 19.9999C8.14007 19.9999 5.00007 16.8599 5.00007 12.9999C5.00007 11.2999 5.61007 9.73992 6.62007 8.52992L16.4701 18.3799C15.2601 19.3899 13.7001 19.9999 12.0001 19.9999ZM19.9101 6.55992C20.3301 6.90992 20.9401 6.84992 21.2901 6.43992L21.3201 6.40992C21.6701 5.98992 21.6101 5.37992 21.2001 5.02992L18.1001 2.43992C17.6801 2.08992 17.0701 2.14992 16.7201 2.55992L16.6901 2.58992C16.3401 3.00992 16.4001 3.61992 16.8101 3.96992L19.9101 6.55992ZM7.43007 3.67992C7.61007 3.33992 7.58007 2.90992 7.32007 2.58992L7.29007 2.55992C6.99007 2.19992 6.49007 2.12992 6.09007 2.33992L7.43007 3.67992V3.67992Z" fill="#969696"/>
</g>
</svg>
