<svg width="24" height="24" viewBox="0 0 24 24" fill="none" xmlns="http://www.w3.org/2000/svg">
<path d="M9.78 11.16L8.36 12.58C7.68 11.89 7.02 11 6.57 9.63995L8.51 9.14995C8.83 10.04 9.28 10.65 9.78 11.16ZM10.15 5.14995L7.35 2.34995C7.15 2.14995 6.84 2.14995 6.64 2.34995L3.85 5.14995C3.54 5.45995 3.76 5.99995 4.21 5.99995H6.02C6.04 6.80995 6.1 7.53995 6.21 8.16995L8.15 7.67995C8.08 7.19995 8.03 6.62995 8.02 5.99995H9.8C10.24 5.99995 10.46 5.45995 10.15 5.14995ZM20.15 5.14995L17.36 2.35995C17.16 2.15995 16.85 2.15995 16.65 2.35995L13.86 5.14995C13.54 5.45995 13.76 5.99995 14.21 5.99995H15.99C15.89 9.67995 14.71 10.75 13.45 11.88C12.95 12.32 12.44 12.8 12 13.43C11.66 12.94 11.27 12.55 10.87 12.19L9.46 13.6C10.39 14.45 11 15.14 11 17V21C11 21.55 11.45 22 12 22C12.55 22 13 21.55 13 21V17C13 14.98 13.71 14.34 14.79 13.37C16.17 12.13 17.87 10.59 17.99 5.99995H19.79C20.24 5.99995 20.46 5.45995 20.15 5.14995Z" fill="#969696"/>
</svg>
