<svg width="24" height="24" viewBox="0 0 24 24" fill="none" xmlns="http://www.w3.org/2000/svg">
<path fill-rule="evenodd" clip-rule="evenodd" d="M2 20.1602H22C23.1 20.1602 24 21.0242 24 22.0802C24 23.1362 23.1 24.0002 22 24.0002H2C0.9 24.0002 0 23.1362 0 22.0802C0 21.0242 0.9 20.1602 2 20.1602Z" fill="#E8E8E8"/>
<path fill-rule="evenodd" clip-rule="evenodd" d="M17.75 7.67992L14 4.07992L4.15 13.5359C4.05 13.6319 4 13.7471 4 13.8815V16.7999C4 17.0687 4.22 17.2799 4.5 17.2799H7.54C7.67 17.2799 7.8 17.2319 7.89 17.1359L17.75 7.67992ZM20.71 4.83832C21.1 4.46392 21.1 3.85912 20.71 3.48472L18.37 1.23832C17.98 0.86392 17.35 0.86392 16.96 1.23832L15 3.11992L18.75 6.71992L20.71 4.83832Z" fill="#969696"/>
</svg>
