<svg width="24" height="24" viewBox="0 0 24 24" fill="none" xmlns="http://www.w3.org/2000/svg">
<path fill-rule="evenodd" clip-rule="evenodd" d="M10.85 12.6501H13.15L12 9.00014L10.85 12.6501ZM20 8.69014V6.00014C20 4.90014 19.1 4.00014 18 4.00014H15.31L13.41 2.10014C12.63 1.32014 11.36 1.32014 10.58 2.10014L8.69001 4.00014H6.00001C4.90001 4.00014 4.00001 4.90014 4.00001 6.00014V8.69014L2.10001 10.5901C1.32001 11.3701 1.32001 12.6401 2.10001 13.4201L4.00001 15.3201V18.0001C4.00001 19.1001 4.90001 20.0001 6.00001 20.0001H8.69001L10.59 21.9001C11.37 22.6801 12.64 22.6801 13.42 21.9001L15.32 20.0001H18C19.1 20.0001 20 19.1001 20 18.0001V15.3101L21.9 13.4101C22.68 12.6301 22.68 11.3601 21.9 10.5801L20 8.69014ZM14.09 15.4001L13.6 14.0001H10.4L9.91001 15.4001C9.78001 15.7601 9.45001 16.0001 9.07001 16.0001C8.45001 16.0001 8.02001 15.3901 8.23001 14.8101L10.67 7.95014C10.87 7.38014 11.4 7.00014 12 7.00014C12.6 7.00014 13.13 7.38014 13.34 7.94014L15.78 14.8001C15.99 15.3801 15.56 15.9901 14.94 15.9901C14.55 16.0001 14.22 15.7601 14.09 15.4001V15.4001Z" fill="#969696"/>
</svg>
