<svg width="24" height="24" viewBox="0 0 24 24" fill="none" xmlns="http://www.w3.org/2000/svg">
<g id="cell_wifi">
<path id="Icon" fill-rule="evenodd" clip-rule="evenodd" d="M8.41002 22.0002H20C21.1 22.0002 22 21.1002 22 20.0002V8.39024C22 7.50024 20.92 7.05024 20.29 7.68024L7.70002 20.2902C7.07002 20.9202 7.52002 22.0002 8.41002 22.0002Z" fill="#969696"/>
<path id="Icon_2" fill-rule="evenodd" clip-rule="evenodd" d="M7.70996 20.2902C7.07996 20.9202 7.51996 22.0002 8.40996 22.0002H18V9.98016L7.70996 20.2902ZM9.06996 11.0702L11 13.0002L12.93 11.0702C11.86 10.0102 10.14 10.0102 9.06996 11.0702V11.0702ZM8.36996 9.30016C9.93996 8.18016 12.07 8.18016 13.64 9.30016C14 9.56016 14.49 9.52016 14.8 9.20016C15.19 8.81016 15.15 8.14016 14.7 7.82016C12.5 6.25016 9.50996 6.25016 7.29996 7.82016C6.84996 8.14016 6.79996 8.81016 7.19996 9.20016C7.51996 9.52016 8.00996 9.56016 8.36996 9.30016ZM16.21 6.69016C16.55 6.97016 17.04 6.97016 17.35 6.66016L17.47 6.54016C17.82 6.19016 17.78 5.62016 17.39 5.30016C13.72 2.25016 8.36996 2.23016 4.68996 5.24016C4.25996 5.59016 4.21996 6.23016 4.60996 6.61016C4.92996 6.94016 5.44996 6.98016 5.79996 6.69016C8.80996 4.21016 13.2 4.21016 16.21 6.69016V6.69016Z" fill="#969696"/>
</g>
</svg>
