<svg width="24" height="24" viewBox="0 0 24 24" fill="none" xmlns="http://www.w3.org/2000/svg">
<path d="M9.63999 7.64016C9.92999 7.02016 10.06 6.31016 9.97999 5.55016C9.78999 3.82016 8.43999 2.35016 6.71999 2.06016C3.94999 1.58016 1.57999 3.95016 2.05999 6.71016C2.35999 8.43016 3.81999 9.78016 5.54999 9.97016C6.30999 10.0502 7.00999 9.92016 7.63999 9.63016L9.99999 12.0002L7.63999 14.3602C7.01999 14.0702 6.30999 13.9402 5.54999 14.0202C3.81999 14.2102 2.34999 15.5602 2.05999 17.2802C1.57999 20.0502 3.94999 22.4102 6.70999 21.9302C8.42999 21.6302 9.77999 20.1702 9.96999 18.4402C10.05 17.6802 9.91999 16.9802 9.62999 16.3502L12 14.0002L19.59 21.5902C20.48 22.4802 22 21.8502 22 20.5902V20.5802C22 20.2102 21.85 19.8502 21.59 19.5802L9.63999 7.64016ZM5.99999 8.00016C4.89999 8.00016 3.99999 7.11016 3.99999 6.00016C3.99999 4.89016 4.89999 4.00016 5.99999 4.00016C7.09999 4.00016 7.99999 4.89016 7.99999 6.00016C7.99999 7.11016 7.09999 8.00016 5.99999 8.00016ZM5.99999 20.0002C4.89999 20.0002 3.99999 19.1102 3.99999 18.0002C3.99999 16.8902 4.89999 16.0002 5.99999 16.0002C7.09999 16.0002 7.99999 16.8902 7.99999 18.0002C7.99999 19.1102 7.09999 20.0002 5.99999 20.0002ZM12 12.5002C11.72 12.5002 11.5 12.2802 11.5 12.0002C11.5 11.7202 11.72 11.5002 12 11.5002C12.28 11.5002 12.5 11.7202 12.5 12.0002C12.5 12.2802 12.28 12.5002 12 12.5002ZM19.59 2.41016L13 9.00016L15 11.0002L21.59 4.41016C21.85 4.15016 22 3.79016 22 3.41016V3.40016C22 2.15016 20.48 1.52016 19.59 2.41016Z" fill="#969696"/>
</svg>
