<svg width="24" height="24" viewBox="0 0 24 24" fill="none" xmlns="http://www.w3.org/2000/svg">
<g id="desktop_access_disabled">
<path id="Icon" fill-rule="evenodd" clip-rule="evenodd" d="M0.310078 2.00002C-0.0799219 2.39002 -0.0799219 3.02002 0.310078 3.41002L1.00008 4.09002V16C1.00008 17.1 1.90008 18 3.00008 18H10.0001V20H9.00008C8.45008 20 8.00008 20.45 8.00008 21C8.00008 21.55 8.45008 22 9.00008 22H15.0001C15.5501 22 16.0001 21.55 16.0001 21C16.0001 20.45 15.5501 20 15.0001 20H14.0001V18H14.9001L20.1901 23.29C20.5801 23.68 21.2101 23.68 21.6001 23.29C21.9901 22.9 21.9901 22.27 21.6001 21.88L1.72008 2.00002C1.33008 1.61002 0.700078 1.61002 0.310078 2.00002ZM2.99008 15V6.09002L12.9001 16H3.99008C3.44008 16 2.99008 15.55 2.99008 15ZM4.55008 2.00002L6.55008 4.00002H20.0001C20.5501 4.00002 21.0001 4.45002 21.0001 5.00002V15C21.0001 15.55 20.5501 16 20.0001 16H18.5501L20.5501 18H20.9901C22.0901 18 22.9901 17.1 22.9901 16V4.00002C22.9901 2.90002 22.0901 2.00002 20.9901 2.00002H4.55008Z" fill="#969696"/>
</g>
</svg>
