<svg width="24" height="24" viewBox="0 0 24 24" fill="none" xmlns="http://www.w3.org/2000/svg">
<path fill-rule="evenodd" clip-rule="evenodd" d="M7 5H17V6C17 6.55 17.45 7 18 7C18.55 7 19 6.55 19 6V3C19 1.9 18.1 1.01 17 1.01L7 1C5.9 1 5 1.9 5 3V6C5 6.55 5.45 7 6 7C6.55 7 7 6.55 7 6V5ZM16.12 15.88L19.29 12.71C19.68 12.32 19.68 11.69 19.29 11.3L16.12 8.13C15.73 7.74 15.09 7.74 14.7 8.13C14.31 8.52 14.31 9.15 14.7 9.54L17.17 12L14.7 14.47C14.31 14.86 14.31 15.49 14.7 15.88C15.09 16.27 15.73 16.27 16.12 15.88V15.88ZM9.29 14.46L6.83 12L9.29 9.54C9.68 9.15 9.68 8.52 9.29 8.13C8.9 7.74 8.26 7.74 7.87 8.13L4.7 11.3C4.31 11.69 4.31 12.32 4.7 12.71L7.87 15.88C8.26 16.27 8.9 16.27 9.29 15.88C9.69 15.49 9.68 14.85 9.29 14.46V14.46ZM17 19H7V18C7 17.45 6.55 17 6 17C5.45 17 5 17.45 5 18V21C5 22.1 5.9 23 7 23H17C18.1 23 19 22.1 19 21V18C19 17.45 18.55 17 18 17C17.45 17 17 17.45 17 18V19Z" fill="#969696"/>
</svg>
