<svg width="24" height="24" viewBox="0 0 24 24" fill="none" xmlns="http://www.w3.org/2000/svg">
<g id="done_all">
<path id="Icon" fill-rule="evenodd" clip-rule="evenodd" d="M17.2999 6.2998C16.9099 5.9098 16.2799 5.9098 15.8899 6.2998L10.2499 11.9398L11.6599 13.3498L17.2999 7.6998C17.6799 7.3198 17.6799 6.6798 17.2999 6.2998ZM21.5399 6.2898L11.6599 16.1698L8.17989 12.6998C7.78989 12.3098 7.15989 12.3098 6.76989 12.6998C6.37989 13.0898 6.37989 13.7198 6.76989 14.1098L10.9499 18.2898C11.3399 18.6798 11.9699 18.6798 12.3599 18.2898L22.9499 7.7098C23.3399 7.3198 23.3399 6.6898 22.9499 6.2998H22.9399C22.5599 5.8998 21.9299 5.8998 21.5399 6.2898ZM1.11989 14.1198L5.29989 18.2998C5.68989 18.6898 6.31989 18.6898 6.70989 18.2998L7.40989 17.5998L2.52989 12.6998C2.13989 12.3098 1.50989 12.3098 1.11989 12.6998C0.729893 13.0898 0.729893 13.7298 1.11989 14.1198V14.1198Z" fill="#969696"/>
</g>
</svg>
