<svg width="24" height="24" viewBox="0 0 24 24" fill="none" xmlns="http://www.w3.org/2000/svg">
<g id="hourglass_disabled">
<path id="Icon" fill-rule="evenodd" clip-rule="evenodd" d="M8.99988 4C8.44988 4 7.99988 4.45 7.99988 5V5.17L6.12988 3.3C6.41988 2.54 7.13988 2 7.99988 2H15.9999C17.0999 2 17.9999 2.89 17.9999 4V7.18C17.9999 7.71 17.7899 8.22 17.4099 8.6L14.4099 11.59L13.1599 10.34L15.9999 7.5V5C15.9999 4.45 15.5499 4 14.9999 4H8.99988ZM1.39989 2.81008C1.78989 2.42008 2.41989 2.42008 2.80989 2.81008L21.1899 21.2001C21.5799 21.5901 21.5799 22.2201 21.1899 22.6101C20.7999 23.0001 20.1699 23.0001 19.7799 22.6101L17.8699 20.7001C17.5799 21.4601 16.8599 22.0001 15.9999 22.0001H7.99989C6.89989 22.0001 5.99989 21.1001 5.99989 20.0001V16.8401C5.99989 16.3101 6.20989 15.8001 6.57989 15.4201L9.5799 12.4101L1.38989 4.22008C0.999895 3.83008 0.999895 3.20008 1.39989 2.81008ZM14.9999 20.0001C15.5499 20.0001 15.9999 19.5501 15.9999 19.0001V18.8301L10.8399 13.6601L7.99989 16.5001V19.0001C7.99989 19.5501 8.44989 20.0001 8.99989 20.0001H14.9999Z" fill="#969696"/>
</g>
</svg>
