<svg width="24" height="24" viewBox="0 0 24 24" fill="none" xmlns="http://www.w3.org/2000/svg">
<path fill-rule="evenodd" clip-rule="evenodd" d="M18.89 5.00009H18.36L19.07 3.03009C19.31 2.38009 18.97 1.66009 18.32 1.43009C17.67 1.19009 16.95 1.53009 16.71 2.18009L15.69 5.00009H5.10001C3.73001 5.00009 2.77001 6.34009 3.20001 7.63009L5.00001 13.0001L3.21001 18.3701C2.77001 19.6601 3.74001 21.0001 5.10001 21.0001H18.88C20.24 21.0001 21.21 19.6601 20.78 18.3701L19 13.0001L20.78 7.63009C21.21 6.34009 20.25 5.00009 18.89 5.00009ZM15 14.0001H13V16.0001C13 16.5501 12.55 17.0001 12 17.0001C11.45 17.0001 11 16.5501 11 16.0001V14.0001H9.00001C8.45001 14.0001 8.00001 13.5501 8.00001 13.0001C8.00001 12.4501 8.45001 12.0001 9.00001 12.0001H11V10.0001C11 9.45009 11.45 9.00009 12 9.00009C12.55 9.00009 13 9.45009 13 10.0001V12.0001H15C15.55 12.0001 16 12.4501 16 13.0001C16 13.5501 15.55 14.0001 15 14.0001Z" fill="#969696"/>
</svg>
