<svg width="24" height="24" viewBox="0 0 24 24" fill="none" xmlns="http://www.w3.org/2000/svg">
<path d="M21.96 11.0502C22.54 17.3102 17.32 22.5302 11.06 21.9502C6.63 21.5402 2.94 18.1002 2.16 13.7202C1.9 12.3002 1.97 10.9402 2.28 9.68021C2.42 9.10021 3.04 8.78021 3.59 8.98021C4.06 9.15021 4.34 9.65021 4.22 10.1402C4.02 10.9602 3.95 11.8402 4.03 12.7502C4.4 16.7902 7.92 20.0002 11.98 20.0102C16.77 20.0202 20.59 15.8002 19.92 10.8902C19.41 7.19021 16.26 4.27021 12.53 4.03021C11.7 3.97021 10.9 4.05021 10.15 4.23021C9.66 4.34021 9.16 4.07021 8.99 3.59021C8.79 3.03021 9.11 2.42021 9.68 2.28021C11.47 1.85021 13.43 1.87021 15.46 2.65021C19.02 4.00021 21.61 7.27021 21.96 11.0502ZM5.5 4.00021C4.67 4.00021 4 4.67021 4 5.50021C4 6.33021 4.67 7.00021 5.5 7.00021C6.33 7.00021 7 6.33021 7 5.50021C7 4.67021 6.33 4.00021 5.5 4.00021ZM18 12.0002C18 15.3102 15.31 18.0002 12 18.0002C8.69 18.0002 6 15.3102 6 12.0002C6 8.69021 8.69 6.00021 12 6.00021C15.31 6.00021 18 8.69021 18 12.0002ZM10 9.00021C9.45 9.00021 9 9.45021 9 10.0002V14.0002C9 14.5502 9.45 15.0002 10 15.0002C10.55 15.0002 11 14.5502 11 14.0002V10.0002C11 9.45021 10.55 9.00021 10 9.00021ZM14 9.00021C13.45 9.00021 13 9.45021 13 10.0002V14.0002C13 14.5502 13.45 15.0002 14 15.0002C14.55 15.0002 15 14.5502 15 14.0002V10.0002C15 9.45021 14.55 9.00021 14 9.00021Z" fill="#969696"/>
</svg>
