<svg width="24" height="24" viewBox="0 0 24 24" fill="none" xmlns="http://www.w3.org/2000/svg">
<path fill-rule="evenodd" clip-rule="evenodd" d="M23.09 16.2C16.76 10.61 7.22995 10.61 0.909953 16.2C0.0699534 16.94 0.0699534 18.25 0.859953 19.04L2.05995 20.24C2.76995 20.95 3.89995 21.01 4.67995 20.39L6.64995 18.82C7.11995 18.45 7.39995 17.88 7.39995 17.27V14.7C10.38 13.73 13.61 13.72 16.6 14.7V17.28C16.6 17.88 16.88 18.45 17.35 18.83L19.31 20.39C20.1 21.01 21.22 20.95 21.93 20.24L23.13 19.04C23.93 18.25 23.92 16.94 23.09 16.2ZM5.99995 9C6.54995 9 6.99995 8.55 6.99995 8V6.43L11.24 10.67C11.63 11.06 12.26 11.06 12.65 10.67L18.31 5.01C18.7 4.62 18.7 3.99 18.31 3.6C17.92 3.21 17.29 3.21 16.9 3.6L11.95 8.55L8.39995 5H9.99995C10.55 5 11 4.55 11 4C11 3.45 10.55 3 9.99995 3H5.99995C5.44995 3 4.99995 3.45 4.99995 4V8C4.99995 8.55 5.44995 9 5.99995 9Z" fill="#969696"/>
</svg>
