<svg width="24" height="24" viewBox="0 0 24 24" fill="none" xmlns="http://www.w3.org/2000/svg">
<g id="print_disabled">
<path id="Icon" fill-rule="evenodd" clip-rule="evenodd" d="M2.11998 2.31984C1.72998 1.92984 1.09998 1.92984 0.70998 2.31984C0.31998 2.70984 0.31998 3.33984 0.70998 3.72984L4.97998 7.99984C3.32998 8.00984 1.99998 9.34984 1.99998 10.9998V14.9998C1.99998 16.0998 2.89998 16.9998 3.99998 16.9998H5.99998V18.9998C5.99998 20.0998 6.89998 20.9998 7.99998 20.9998H16C16.55 20.9998 17.04 20.7798 17.4 20.4198L20.23 23.2498C20.62 23.6398 21.25 23.6398 21.64 23.2498C22.03 22.8598 22.03 22.2298 21.64 21.8398L2.11998 2.31984ZM15 18.9998H8.99998C8.44998 18.9998 7.99998 18.5498 7.99998 17.9998V13.9998H10.98L15.7 18.7198C15.51 18.8898 15.27 18.9998 15 18.9998ZM19 7.99984H10.63L19.63 16.9998H20C21.1 16.9998 22 16.0998 22 14.9998V10.9998C22 9.33984 20.66 7.99984 19 7.99984ZM19 11.9998C18.45 11.9998 18 11.5498 18 10.9998C18 10.4498 18.45 9.99984 19 9.99984C19.55 9.99984 20 10.4498 20 10.9998C20 11.5498 19.55 11.9998 19 11.9998ZM17 6.99984C17.55 6.99984 18 6.54984 18 5.99984V3.99984C18 3.44984 17.55 2.99984 17 2.99984H6.99998C6.62998 2.99984 6.31998 3.20984 6.14998 3.50984L9.62998 6.99984H17Z" fill="#969696"/>
</g>
</svg>
