<svg width="24" height="24" viewBox="0 0 24 24" fill="none" xmlns="http://www.w3.org/2000/svg">
<g id="record_voice_over">
<path id="Icon" fill-rule="evenodd" clip-rule="evenodd" d="M9 13.0001C6.79086 13.0001 5 11.2092 5 9.00011C5 6.79097 6.79086 5.00011 9 5.00011C11.2091 5.00011 13 6.79097 13 9.00011C13 11.2092 11.2091 13.0001 9 13.0001ZM9 15.0001C11.67 15.0001 17 16.3401 17 19.0001V20.0001C17 20.5501 16.55 21.0001 16 21.0001H2C1.45 21.0001 1 20.5501 1 20.0001V19.0001C1 16.3401 6.33 15.0001 9 15.0001ZM15.47 7.77011C15.28 7.30011 15.36 6.76011 15.7 6.41011L15.71 6.40011C16.3 5.81011 17.3 5.95011 17.68 6.69011C18.46 8.20011 18.46 9.90011 17.7 11.3501C17.32 12.0801 16.33 12.2001 15.75 11.6201L15.72 11.5901C15.36 11.2301 15.28 10.7001 15.47 10.2301C15.79 9.44011 15.79 8.56011 15.47 7.77011ZM19.18 2.89011C19.67 2.40011 20.51 2.44011 20.93 2.99011C23.69 6.64011 23.68 11.4701 20.93 15.0101C20.51 15.5601 19.68 15.6001 19.19 15.1101L19.16 15.0801C18.77 14.6901 18.7 14.0701 19.02 13.6201C21.01 10.7801 21.02 7.11011 19.05 4.37011C18.72 3.91011 18.78 3.29011 19.18 2.89011Z" fill="#969696"/>
</g>
</svg>
