<svg width="24" height="24" viewBox="0 0 24 24" fill="none" xmlns="http://www.w3.org/2000/svg">
<path fill-rule="evenodd" clip-rule="evenodd" d="M6.99999 7.00019H17V8.79018C17 9.24018 17.54 9.46018 17.85 9.14018L20.64 6.35018C20.84 6.15018 20.84 5.84018 20.64 5.64018L17.85 2.85018C17.54 2.54018 17 2.76018 17 3.21018V5.00018H5.99999C5.44999 5.00018 4.99999 5.45018 4.99999 6.00018V10.0002C4.99999 10.5502 5.44999 11.0002 5.99999 11.0002C6.54999 11.0002 6.99999 10.5502 6.99999 10.0002V7.00019ZM17 17.0002H6.99999V15.2102C6.99999 14.7602 6.45999 14.5402 6.14999 14.8602L3.35999 17.6502C3.15999 17.8502 3.15999 18.1602 3.35999 18.3602L6.14999 21.1502C6.45999 21.4602 6.99999 21.2402 6.99999 20.7902V19.0002H18C18.55 19.0002 19 18.5502 19 18.0002V14.0002C19 13.4502 18.55 13.0002 18 13.0002C17.45 13.0002 17 13.4502 17 14.0002V17.0002Z" fill="#969696"/>
</svg>
