<svg width="24" height="24" viewBox="0 0 24 24" fill="none" xmlns="http://www.w3.org/2000/svg">
<g id="search">
<path id="Icon" fill-rule="evenodd" clip-rule="evenodd" d="M15.4999 14.0001H14.7099L14.4299 13.7301C15.6299 12.3301 16.2499 10.4201 15.9099 8.39014C15.4399 5.61014 13.1199 3.39014 10.3199 3.05014C6.08989 2.53014 2.52989 6.09014 3.04989 10.3201C3.38989 13.1201 5.60989 15.4401 8.38989 15.9101C10.4199 16.2501 12.3299 15.6301 13.7299 14.4301L13.9999 14.7101V15.5001L18.2499 19.7501C18.6599 20.1601 19.3299 20.1601 19.7399 19.7501C20.1499 19.3401 20.1499 18.6701 19.7399 18.2601L15.4999 14.0001ZM9.49989 14.0001C7.00989 14.0001 4.99989 11.9901 4.99989 9.50014C4.99989 7.01014 7.00989 5.00014 9.49989 5.00014C11.9899 5.00014 13.9999 7.01014 13.9999 9.50014C13.9999 11.9901 11.9899 14.0001 9.49989 14.0001Z" fill="#969696"/>
</g>
</svg>
