<svg width="24" height="24" viewBox="0 0 24 24" fill="none" xmlns="http://www.w3.org/2000/svg">
<path fill-rule="evenodd" clip-rule="evenodd" d="M15.5 14.5C15.5 11.7 17.7 9.5 20.5 9.5C20.86 9.5 21.21 9.54 21.55 9.61L23.64 7C23.19 6.66 18.71 3 12 3C5.28 3 0.81 6.66 0.36 7L10.44 19.56C11.24 20.56 12.76 20.56 13.56 19.56L15.5 17.14V14.5Z" fill="#E8E8E8"/>
<path fill-rule="evenodd" clip-rule="evenodd" d="M15.5 14.5C15.5 14.27 15.54 14.04 15.57 13.82C14.65 13.39 13.43 13 12 13C9 13 6.9 14.7 6.7 14.9L10.44 19.56C11.24 20.56 12.76 20.56 13.56 19.56L15.5 17.14V14.5ZM23 16V14.5C23 13.1 21.9 12 20.5 12C19.1 12 18 13.1 18 14.5V16C17.5 16 17 16.5 17 17V21C17 21.5 17.5 22 18 22H23C23.5 22 24 21.5 24 21V17C24 16.5 23.5 16 23 16ZM22 16H19V14.5C19 13.7 19.7 13 20.5 13C21.3 13 22 13.7 22 14.5V16Z" fill="#969696"/>
</svg>
