<svg width="24" height="24" viewBox="0 0 24 24" fill="none" xmlns="http://www.w3.org/2000/svg">
<path fill-rule="evenodd" clip-rule="evenodd" d="M22 7.99977V4.40977C22 3.51977 20.92 3.06977 20.29 3.69977L3.70999 20.2898C3.07999 20.9198 3.51999 21.9998 4.40999 21.9998H18V10.9998C18 9.33977 19.34 7.99977 21 7.99977H22Z" fill="#E8E8E8"/>
<path fill-rule="evenodd" clip-rule="evenodd" d="M18 22V6L3.70999 20.29C3.07999 20.92 3.51999 22 4.40999 22H18ZM20 11V17C20 17.55 20.45 18 21 18C21.55 18 22 17.55 22 17V11C22 10.45 21.55 10 21 10C20.45 10 20 10.45 20 11ZM20 22H22V20H20V22Z" fill="#969696"/>
</svg>
