<svg width="24" height="24" viewBox="0 0 24 24" fill="none" xmlns="http://www.w3.org/2000/svg">
<g id="youtube_searched_for">
<path id="Icon" fill-rule="evenodd" clip-rule="evenodd" d="M17.01 13.9998H16.21L15.94 13.7298C17.09 12.3898 17.7 10.5898 17.45 8.63979C17.11 5.99979 15.1 3.77979 12.5 3.17979C8.25998 2.19979 4.50998 5.52979 4.50998 9.49979H2.40998C1.93998 9.49979 1.72998 10.0898 2.09998 10.3898L5.49998 13.1398C5.68998 13.3398 6.00998 13.3498 6.20998 13.1498L9.10997 10.3598C9.42997 10.0498 9.20997 9.49979 8.75997 9.49979H6.50997C6.50997 7.00979 8.50998 5.01979 10.97 4.99979C13.41 4.97979 15.51 7.04979 15.51 9.48979C15.51 11.9698 13.49 13.9998 11.01 13.9998C10.56 13.9998 10.12 13.9298 9.70998 13.8098C9.36998 13.7098 8.99998 13.8098 8.74998 14.0698C8.21998 14.5998 8.42998 15.5198 9.13998 15.7298C9.72998 15.8998 10.36 15.9998 11.01 15.9998C12.62 15.9998 14.09 15.4098 15.23 14.4298L15.5 14.6998V15.4898L19.77 19.7398C20.18 20.1498 20.84 20.1498 21.25 19.7398C21.66 19.3298 21.66 18.6598 21.25 18.2498L17.01 13.9998Z" fill="#969696"/>
</g>
</svg>
