<?xml version="1.0" encoding="utf-8"?>
<!-- Generator: Adobe Illustrator 24.3.0, SVG Export Plug-In . SVG Version: 6.00 Build 0)  -->
<svg version="1.1" id="Layer_1" xmlns="http://www.w3.org/2000/svg" xmlns:xlink="http://www.w3.org/1999/xlink" x="0px" y="0px"
	 viewBox="0 0 117.4 315.9" style="enable-background:new 0 0 117.4 315.9;" xml:space="preserve">
<style type="text/css">
	.st0{fill:#020203;}
</style>
<g>
	<path class="st0" d="M83.4,58.9l-0.1,99.5c-0.1,4.9-0.6,9.2-1.5,12.9c-1,3.7-2.4,6.8-4.3,9.3c-1.2,1.6-2.6,3-4.3,4L73.1,35.4
		L44.3,6.6l0.1,178.1c-1.7-1.1-3.1-2.4-4.3-4.1c-1.9-2.5-3.4-5.6-4.3-9.3c-1-3.7-1.5-8-1.5-12.9l-0.1-99.5H5.4l-0.1,99.5
		c0,8.4,1.2,15.8,3.5,22.4c2.3,6.5,5.6,12,9.9,16.5c4.4,4.5,9.7,8,16,10.3c3,1.1,6.3,2,9.7,2.6v24.5l28.8,28.8v-53.3
		c3.4-0.6,6.6-1.4,9.7-2.6c6.3-2.3,11.6-5.8,16-10.3c4.3-4.5,7.6-10,9.9-16.5c2.3-6.5,3.5-14,3.5-22.4l-0.1-99.5L83.4,58.9
		L83.4,58.9z"/>
	<g>
		<path class="st0" d="M22.2,278.8v20.8c0,7.3-2.1,9.8-8.5,9.8s-8.5-2.4-8.5-9.8v-20.8h5.6v21.1c0,3.3,0.9,4.3,2.9,4.3
			s2.9-1,2.9-4.3v-21.1H22.2z"/>
		<path class="st0" d="M33.5,296.9h-2.3v12.3h-5.6v-30.4H34c6,0,7.8,1.8,7.8,7.1v4.1c0,3.1-1,5-3,6l3.5,13.1h-5.7L33.5,296.9z
			 M31.1,283.9v8.4h2.8c1.7,0,2.2-0.5,2.2-2.8v-2.8c0-2.2-0.6-2.8-2.2-2.8L31.1,283.9L31.1,283.9z"/>
		<path class="st0" d="M55.8,301.9h-4.7l-1,7.3h-5.4l4.4-30.4h8.6l4.5,30.4h-5.4L55.8,301.9z M55.1,297.2l-1.7-12.6l-1.7,12.6H55.1z
			"/>
		<path class="st0" d="M70.2,291.3v17.9h-5.1v-30.4h5.4l6.5,17.5v-17.5h5.1v30.4h-5.3L70.2,291.3z"/>
		<path class="st0" d="M85.5,278.8h5.6v30.4h-5.6V278.8z"/>
		<path class="st0" d="M103.3,309.4c-6.3,0-9-3.1-9-9.3v-12.2c0-6.2,2.6-9.3,9-9.3c6.3,0,9,3.1,9,9.3v12.2
			C112.2,306.3,109.6,309.4,103.3,309.4z M103.3,283.8c-2.3,0-3.4,1-3.4,4.8v11c0,3.7,1.1,4.7,3.4,4.7c2.3,0,3.4-1,3.4-4.7v-11
			C106.7,284.8,105.6,283.8,103.3,283.8z"/>
	</g>
</g>
</svg>
