<?xml version="1.0" encoding="utf-8"?>
<!-- Generator: Adobe Illustrator 24.3.0, SVG Export Plug-In . SVG Version: 6.00 Build 0)  -->
<svg version="1.1" id="Layer_1" xmlns="http://www.w3.org/2000/svg" xmlns:xlink="http://www.w3.org/1999/xlink" x="0px" y="0px"
	 viewBox="0 0 323.9 97.4" style="enable-background:new 0 0 323.9 97.4;" xml:space="preserve">
<g>
	<path d="M54.9,4.3v60.9c0,21.5-6.2,28.6-24.8,28.6c-18.7,0-24.9-7.1-24.9-28.6V4.3h16.3V66c0,9.6,2.6,12.7,8.6,12.7
		s8.6-3.1,8.6-12.7V4.3H54.9z"/>
	<path d="M87.9,57.2H81v36.1H64.8v-89h24.5c17.6,0,22.8,5.2,22.8,20.8v12.1c0,9.2-2.8,14.7-8.8,17.6l10.1,38.4H96.8L87.9,57.2z
		 M81,19.3v24.4h8.3c4.9,0,6.5-1.4,6.5-8.1v-8.3c0-6.5-1.6-8.1-6.5-8.1H81V19.3z"/>
	<path d="M153,72h-13.7l-2.8,21.3h-15.7l12.9-88.9h25.1l13.1,88.9H156L153,72z M151.2,58.2l-5-36.9l-5,36.9H151.2z"/>
	<path d="M195.4,41v52.3h-14.9v-89h15.9l18.9,51.2V4.3h14.9v88.9h-15.6L195.4,41z"/>
	<path d="M240,4.3h16.3v88.9H240V4.3z"/>
	<path d="M292,93.8c-18.5,0-26.3-8.9-26.3-27.2V31c0-18.2,7.7-27.2,26.3-27.2c18.5,0,26.3,8.9,26.3,27.2v35.7
		C318.3,84.9,310.5,93.8,292,93.8z M292,18.9c-6.9,0-10,2.9-10,14V65c0,10.9,3.2,13.7,10,13.7c6.9,0,10-2.8,10-13.7V32.8
		C302,21.8,298.9,18.9,292,18.9z"/>
</g>
</svg>
