<?xml version="1.0" encoding="utf-8"?>
<!-- Generator: Adobe Illustrator 24.3.0, SVG Export Plug-In . SVG Version: 6.00 Build 0)  -->
<svg version="1.1" id="Layer_1" xmlns="http://www.w3.org/2000/svg" xmlns:xlink="http://www.w3.org/1999/xlink" x="0px" y="0px"
	 viewBox="0 0 148 320" style="enable-background:new 0 0 148 320;" xml:space="preserve">
<style type="text/css">
	.st0{fill:#020203;}
</style>
<path class="st0" d="M103.6,68.4l-0.1,119.7c-0.1,5.9-0.7,11-1.9,15.5s-2.9,8.2-5.2,11.2c-1.5,2-3.2,3.6-5.1,4.9L91.1,40.1L56.5,5.4
	l0.1,214.3c-2-1.3-3.7-2.9-5.2-4.9c-2.3-3-4.1-6.7-5.2-11.2c-1.2-4.5-1.8-9.6-1.9-15.5L44.2,68.5H9.6L9.5,188.2
	c0,10.1,1.4,19.1,4.2,26.9c2.8,7.9,6.8,14.5,12,19.9c5.3,5.5,11.7,9.6,19.3,12.4c3.7,1.4,7.6,2.4,11.7,3.1v29.4l34.7,34.7v-64.1
	c4.1-0.7,8-1.7,11.6-3.1c7.6-2.8,14-6.9,19.3-12.4c5.2-5.4,9.2-12,12-19.9s4.2-16.8,4.2-26.9l-0.1-119.7L103.6,68.4L103.6,68.4z"/>
</svg>
