<?xml version="1.0" encoding="utf-8"?>
<!-- Generator: Adobe Illustrator 24.3.0, SVG Export Plug-In . SVG Version: 6.00 Build 0)  -->
<svg version="1.1" id="Layer_1" xmlns="http://www.w3.org/2000/svg" xmlns:xlink="http://www.w3.org/1999/xlink" x="0px" y="0px"
	 viewBox="0 0 323.9 97.4" style="enable-background:new 0 0 323.9 97.4;" xml:space="preserve">
<style type="text/css">
	.st0{fill:#020203;}
</style>
<g>
	<path class="st0" d="M1487.5,491.9c5.4-5.5,9.5-12.3,12.3-20.4c2.9-8.1,4.3-17.3,4.3-27.7l-0.1-123.2h-35.7l-0.1,123.2
		c-0.1,6-0.7,11.4-1.9,16c-1.2,4.6-3,8.4-5.4,11.5c-1.5,2-3.3,3.7-5.3,5l-0.1-184.9l-35.7-35.7l0.1,220.6c-2-1.3-3.8-3-5.3-5.1
		c-2.4-3.1-4.2-6.9-5.4-11.5c-1.2-4.6-1.8-9.9-1.9-16l-0.1-123.2h-35.7l-0.1,123.2c0,10.4,1.4,19.6,4.3,27.7
		c2.9,8.1,7,14.9,12.3,20.4c5.5,5.6,12.1,9.9,19.9,12.8c3.8,1.4,7.8,2.5,12.1,3.2l0,30.3l35.7,35.7l0-66c4.2-0.7,8.3-1.8,12-3.2
		C1475.4,501.7,1482,497.5,1487.5,491.9z"/>
	<path class="st0" d="M1369.5,516.6c-6.5-4.4-12.6-9.4-18.2-15c-5.6-5.6-10.6-11.7-15-18.2c-4.4-6.6-8.3-13.6-11.3-20.9
		c-3.1-7.4-5.5-15.2-7.2-23c-1.7-8.1-2.5-16.4-2.5-24.8c0-8.3,0.8-16.7,2.5-24.8c1.6-7.9,4-15.6,7.2-23c3.1-7.3,6.9-14.3,11.3-20.9
		c4.4-6.5,9.5-12.6,15-18.2c5.6-5.6,11.7-10.6,18.2-15c6.6-4.4,13.6-8.2,20.9-11.3c5.4-2.3,11-4.2,16.7-5.7v-17.4
		c-8,1.8-15.8,4.3-23.3,7.5c-8.3,3.5-16.3,7.8-23.8,12.9c-7.4,5-14.4,10.7-20.7,17.1c-6.3,6.3-12.1,13.3-17.1,20.7
		c-5.1,7.5-9.4,15.5-12.9,23.7c-3.6,8.4-6.3,17.3-8.2,26.2c-1.9,9.2-2.8,18.7-2.8,28.2c0,9.5,1,19,2.8,28.2c1.8,9,4.6,17.8,8.2,26.3
		c3.5,8.3,7.9,16.3,12.9,23.7c5,7.4,10.8,14.4,17.1,20.7c6.3,6.3,13.3,12.1,20.7,17.1c7.5,5,15.5,9.4,23.8,12.9
		c7.5,3.2,15.3,5.7,23.3,7.5v-17.4c-5.7-1.5-11.3-3.4-16.7-5.7C1383.1,524.8,1376.1,521,1369.5,516.6z"/>
	<path class="st0" d="M1510.4,516.6c6.5-4.4,12.6-9.4,18.2-15c5.6-5.6,10.6-11.7,15-18.2c4.4-6.6,8.3-13.6,11.3-20.9
		c3.1-7.4,5.5-15.2,7.2-23c1.7-8.1,2.5-16.4,2.5-24.8c0-8.3-0.8-16.7-2.5-24.8c-1.6-7.9-4-15.6-7.2-23c-3.1-7.3-6.9-14.3-11.3-20.9
		c-4.4-6.5-9.5-12.6-15-18.2c-5.6-5.6-11.7-10.6-18.2-15c-6.6-4.4-13.6-8.2-20.9-11.3c-5.4-2.3-11-4.2-16.7-5.7v-17.4
		c8,1.8,15.8,4.3,23.3,7.5c8.3,3.5,16.3,7.8,23.8,12.9c7.4,5,14.4,10.7,20.7,17.1c6.3,6.3,12.1,13.3,17.1,20.7
		c5.1,7.5,9.4,15.5,12.9,23.7c3.6,8.4,6.3,17.3,8.2,26.2c1.9,9.2,2.8,18.7,2.8,28.2c0,9.5-1,19-2.8,28.2c-1.8,9-4.6,17.8-8.2,26.3
		c-3.5,8.3-7.9,16.3-12.9,23.7c-5,7.4-10.8,14.4-17.1,20.7c-6.3,6.3-13.3,12.1-20.7,17.1c-7.5,5-15.5,9.4-23.8,12.9
		c-7.5,3.2-15.3,5.7-23.3,7.5v-17.4c5.7-1.5,11.3-3.4,16.7-5.7C1496.8,524.8,1503.8,521,1510.4,516.6z"/>
</g>
<g>
	<path d="M54.9,4.3v60.9c0,21.5-6.2,28.6-24.8,28.6c-18.7,0-24.9-7.1-24.9-28.6V4.3h16.3V66c0,9.6,2.6,12.7,8.6,12.7
		s8.6-3.1,8.6-12.7V4.3H54.9z"/>
	<path d="M87.9,57.2H81v36.1H64.8V4.3h24.5c17.6,0,22.8,5.2,22.8,20.8v12.1c0,9.2-2.8,14.7-8.8,17.6l10.1,38.4H96.8L87.9,57.2z
		 M81,19.3v24.4h8.3c4.9,0,6.5-1.4,6.5-8.1v-8.3c0-6.5-1.6-8.1-6.5-8.1H81z"/>
	<path d="M153,72h-13.7l-2.8,21.3h-15.7l12.9-88.9h25.1l13.1,88.9h-15.9L153,72z M151.2,58.2l-5-36.9l-5,36.9H151.2z"/>
	<path d="M195.4,41v52.3h-14.9V4.3h15.9l18.9,51.2V4.3h14.9v88.9h-15.6L195.4,41z"/>
	<path d="M240,4.3h16.3v88.9H240V4.3z"/>
	<path d="M292,93.8c-18.5,0-26.3-8.9-26.3-27.2V31c0-18.2,7.7-27.2,26.3-27.2c18.5,0,26.3,8.9,26.3,27.2v35.7
		C318.3,84.9,310.5,93.8,292,93.8z M292,18.9c-6.9,0-10,2.9-10,14v32.1c0,10.9,3.2,13.7,10,13.7c6.9,0,10-2.8,10-13.7V32.8
		C302,21.8,298.9,18.9,292,18.9z"/>
</g>
</svg>
