<?xml version="1.0" encoding="utf-8"?>
<!-- Generator: Adobe Illustrator 24.3.0, SVG Export Plug-In . SVG Version: 6.00 Build 0)  -->
<svg version="1.1" id="Layer_1" xmlns="http://www.w3.org/2000/svg" xmlns:xlink="http://www.w3.org/1999/xlink" x="0px" y="0px"
	 viewBox="0 0 320 320" style="enable-background:new 0 0 320 320;" xml:space="preserve">
<style type="text/css">
	.st0{fill:#020203;}
</style>
<g>
	<path class="st0" d="M1487.5,617.1c5.4-5.5,9.5-12.3,12.3-20.4c2.9-8.1,4.3-17.3,4.3-27.7l-0.1-123.2h-35.7l-0.1,123.2
		c-0.1,6-0.7,11.4-1.9,16c-1.2,4.6-3,8.4-5.4,11.5c-1.5,2-3.3,3.7-5.3,5l-0.1-184.9l-35.7-35.7l0.1,220.6c-2-1.3-3.8-3-5.3-5.1
		c-2.4-3.1-4.2-6.9-5.4-11.5c-1.2-4.6-1.8-9.9-1.9-16l-0.1-123.2h-35.7l-0.1,123.2c0,10.4,1.4,19.6,4.3,27.7
		c2.9,8.1,7,14.9,12.3,20.4c5.5,5.6,12.1,9.9,19.9,12.8c3.8,1.4,7.8,2.5,12.1,3.2l0,30.3l35.7,35.7l0-66c4.2-0.7,8.3-1.8,12-3.2
		C1475.4,627,1482,622.8,1487.5,617.1z"/>
	<path class="st0" d="M1369.5,641.9c-6.5-4.4-12.6-9.4-18.2-15c-5.6-5.6-10.6-11.7-15-18.2c-4.4-6.6-8.3-13.6-11.3-20.9
		c-3.1-7.4-5.5-15.2-7.2-23c-1.7-8.1-2.5-16.4-2.5-24.8c0-8.3,0.8-16.7,2.5-24.8c1.6-7.9,4-15.6,7.2-23c3.1-7.3,6.9-14.3,11.3-20.9
		c4.4-6.5,9.5-12.6,15-18.2c5.6-5.6,11.7-10.6,18.2-15c6.6-4.4,13.6-8.2,20.9-11.3c5.4-2.3,11-4.2,16.7-5.7v-17.4
		c-8,1.8-15.8,4.3-23.3,7.5c-8.3,3.5-16.3,7.8-23.8,12.9c-7.4,5-14.4,10.7-20.7,17.1c-6.3,6.3-12.1,13.3-17.1,20.7
		c-5.1,7.5-9.4,15.5-12.9,23.7c-3.6,8.4-6.3,17.3-8.2,26.2c-1.9,9.2-2.8,18.7-2.8,28.2c0,9.5,1,19,2.8,28.2c1.8,9,4.6,17.8,8.2,26.3
		c3.5,8.3,7.9,16.3,12.9,23.7c5,7.4,10.8,14.4,17.1,20.7c6.3,6.3,13.3,12.1,20.7,17.1c7.5,5,15.5,9.4,23.8,12.9
		c7.5,3.2,15.3,5.7,23.3,7.5v-17.4c-5.7-1.5-11.3-3.4-16.7-5.7C1383.1,650.1,1376.1,646.3,1369.5,641.9z"/>
	<path class="st0" d="M1510.4,641.9c6.5-4.4,12.6-9.4,18.2-15c5.6-5.6,10.6-11.7,15-18.2c4.4-6.6,8.3-13.6,11.3-20.9
		c3.1-7.4,5.5-15.2,7.2-23c1.7-8.1,2.5-16.4,2.5-24.8c0-8.3-0.8-16.7-2.5-24.8c-1.6-7.9-4-15.6-7.2-23c-3.1-7.3-6.9-14.3-11.3-20.9
		c-4.4-6.5-9.5-12.6-15-18.2c-5.6-5.6-11.7-10.6-18.2-15c-6.6-4.4-13.6-8.2-20.9-11.3c-5.4-2.3-11-4.2-16.7-5.7v-17.4
		c8,1.8,15.8,4.3,23.3,7.5c8.3,3.5,16.3,7.8,23.8,12.9c7.4,5,14.4,10.7,20.7,17.1c6.3,6.3,12.1,13.3,17.1,20.7
		c5.1,7.5,9.4,15.5,12.9,23.7c3.6,8.4,6.3,17.3,8.2,26.2c1.9,9.2,2.8,18.7,2.8,28.2c0,9.5-1,19-2.8,28.2c-1.8,9-4.6,17.8-8.2,26.3
		c-3.5,8.3-7.9,16.3-12.9,23.7c-5,7.4-10.8,14.4-17.1,20.7c-6.3,6.3-13.3,12.1-20.7,17.1c-7.5,5-15.5,9.4-23.8,12.9
		c-7.5,3.2-15.3,5.7-23.3,7.5v-17.4c5.7-1.5,11.3-3.4,16.7-5.7C1496.8,650.1,1503.8,646.3,1510.4,641.9z"/>
</g>
<path class="st0" d="M185,60.8l-0.1,99.5c-0.1,4.9-0.6,9.2-1.5,12.9c-1,3.7-2.4,6.8-4.3,9.3c-1.2,1.6-2.6,3-4.3,4l-0.1-149.2
	L145.9,8.5l0.1,178.1c-1.7-1.1-3.1-2.4-4.3-4.1c-1.9-2.5-3.4-5.6-4.3-9.3c-1-3.7-1.5-8-1.5-12.9l-0.1-99.5h-28.8l-0.1,99.5
	c0,8.4,1.2,15.8,3.5,22.4c2.3,6.5,5.6,12,9.9,16.5c4.4,4.5,9.7,8,16,10.3c3,1.1,6.3,2,9.7,2.6l0,24.5l28.8,28.8l0-53.3
	c3.4-0.6,6.6-1.4,9.7-2.6c6.3-2.3,11.6-5.8,16-10.3c4.3-4.5,7.6-10,9.9-16.5c2.3-6.5,3.5-14,3.5-22.4l-0.1-99.5H185z"/>
<g>
	<path class="st0" d="M123.8,280.7v20.8c0,7.3-2.1,9.8-8.5,9.8c-6.4,0-8.5-2.4-8.5-9.8v-20.8h5.6v21.1c0,3.3,0.9,4.3,2.9,4.3
		s2.9-1,2.9-4.3v-21.1H123.8z"/>
	<path class="st0" d="M135.1,298.8h-2.3v12.3h-5.6v-30.4h8.4c6,0,7.8,1.8,7.8,7.1v4.1c0,3.1-1,5-3,6l3.5,13.1h-5.7L135.1,298.8z
		 M132.7,285.8v8.4h2.8c1.7,0,2.2-0.5,2.2-2.8v-2.8c0-2.2-0.6-2.8-2.2-2.8H132.7z"/>
	<path class="st0" d="M157.4,303.8h-4.7l-1,7.3h-5.4l4.4-30.4h8.6l4.5,30.4h-5.4L157.4,303.8z M156.7,299.1l-1.7-12.6l-1.7,12.6
		H156.7z"/>
	<path class="st0" d="M171.8,293.2v17.9h-5.1v-30.4h5.4l6.5,17.5v-17.5h5.1v30.4h-5.3L171.8,293.2z"/>
	<path class="st0" d="M187.1,280.7h5.6v30.4h-5.6V280.7z"/>
	<path class="st0" d="M204.9,311.3c-6.3,0-9-3.1-9-9.3v-12.2c0-6.2,2.6-9.3,9-9.3c6.3,0,9,3.1,9,9.3V302
		C213.8,308.2,211.2,311.3,204.9,311.3z M204.9,285.7c-2.3,0-3.4,1-3.4,4.8v11c0,3.7,1.1,4.7,3.4,4.7c2.3,0,3.4-1,3.4-4.7v-11
		C208.3,286.7,207.2,285.7,204.9,285.7z"/>
</g>
</svg>
