<svg width="24" height="24" viewBox="0 0 24 24" fill="none" xmlns="http://www.w3.org/2000/svg">
<g id="add_task">
<path id="Icon" d="M21.2899 5.89019L11.2899 15.8902C10.8999 16.2802 10.2699 16.2802 9.87988 15.8902L7.04988 13.0602C6.65988 12.6702 6.65988 12.0402 7.04988 11.6502C7.43988 11.2602 8.06988 11.2602 8.45988 11.6502L10.5799 13.7702L19.8699 4.48019C20.2599 4.09019 20.8899 4.09019 21.2799 4.48019C21.6799 4.87019 21.6799 5.50019 21.2899 5.89019ZM11.9999 20.0002C7.28988 20.0002 3.51988 15.9102 4.04988 11.1002C4.43988 7.58019 7.16988 4.69019 10.6599 4.11019C12.4699 3.81019 14.1899 4.13019 15.6499 4.89019C16.0399 5.09019 16.5099 5.02019 16.8199 4.71019C17.2999 4.23019 17.1799 3.42019 16.5799 3.11019C15.1099 2.36019 13.4499 1.95019 11.6799 2.00019C6.53988 2.16019 2.26988 6.34019 2.00988 11.4702C1.71988 17.2402 6.29988 22.0002 11.9999 22.0002C13.1999 22.0002 14.3399 21.7902 15.4099 21.4002C16.0899 21.1502 16.2799 20.2702 15.7599 19.7502C15.4899 19.4802 15.0799 19.3802 14.7199 19.5202C13.8699 19.8302 12.9499 20.0002 11.9999 20.0002ZM18.9999 15.0002H16.9999C16.4499 15.0002 15.9999 15.4502 15.9999 16.0002C15.9999 16.5502 16.4499 17.0002 16.9999 17.0002H18.9999V19.0002C18.9999 19.5502 19.4499 20.0002 19.9999 20.0002C20.5499 20.0002 20.9999 19.5502 20.9999 19.0002V17.0002H22.9999C23.5499 17.0002 23.9999 16.5502 23.9999 16.0002C23.9999 15.4502 23.5499 15.0002 22.9999 15.0002H20.9999V13.0002C20.9999 12.4502 20.5499 12.0002 19.9999 12.0002C19.4499 12.0002 18.9999 12.4502 18.9999 13.0002V15.0002Z" fill="#969696"/>
</g>
</svg>
