<svg width="24" height="24" viewBox="0 0 24 24" fill="none" xmlns="http://www.w3.org/2000/svg">
<g id="alternate_email">
<path id="Icon" fill-rule="evenodd" clip-rule="evenodd" d="M12.7201 2.03007C6.63007 1.60007 1.60007 6.63007 2.03007 12.7201C2.39007 18.0101 7.01007 22.0001 12.3101 22.0001H16.0001C16.5501 22.0001 17.0001 21.5501 17.0001 21.0001C17.0001 20.4501 16.5501 20.0001 16.0001 20.0001H12.3301C8.60007 20.0001 5.18007 17.5801 4.25007 13.9701C2.76007 8.17007 8.16007 2.76007 13.9601 4.26007C17.5801 5.18007 20.0001 8.60007 20.0001 12.3301V13.4301C20.0001 14.2201 19.2901 15.0001 18.5001 15.0001C17.7101 15.0001 17.0001 14.2201 17.0001 13.4301V12.1801C17.0001 9.67007 15.2201 7.41007 12.7401 7.06007C9.34007 6.57007 6.47007 9.51007 7.08007 12.9301C7.42007 14.8401 8.91007 16.4201 10.8001 16.8701C12.6401 17.3001 14.3901 16.7101 15.5401 15.5401C16.4301 16.7601 18.2101 17.4001 19.8401 16.7501C21.1801 16.2201 22.0001 14.8501 22.0001 13.4101V12.3201C22.0001 7.01007 18.0101 2.39007 12.7201 2.03007ZM12.0001 15.0001C10.3401 15.0001 9.00007 13.6601 9.00007 12.0001C9.00007 10.3401 10.3401 9.00007 12.0001 9.00007C13.6601 9.00007 15.0001 10.3401 15.0001 12.0001C15.0001 13.6601 13.6601 15.0001 12.0001 15.0001Z" fill="#969696"/>
</g>
</svg>
