<svg width="24" height="24" viewBox="0 0 24 24" fill="none" xmlns="http://www.w3.org/2000/svg">
<path fill-rule="evenodd" clip-rule="evenodd" d="M22 3H6.99996C6.30996 3 5.76996 3.35 5.40996 3.88L0.369956 11.45C0.149956 11.79 0.149956 12.22 0.369956 12.56L5.40996 20.12C5.76996 20.64 6.30996 21 6.99996 21H22C23.1 21 24 20.1 24 19V5C24 3.9 23.1 3 22 3ZM18.3 16.3C17.91 16.69 17.28 16.69 16.89 16.3L14 13.41L11.11 16.3C10.72 16.69 10.09 16.69 9.69996 16.3C9.30996 15.91 9.30996 15.28 9.69996 14.89L12.59 12L9.69996 9.11C9.30996 8.72 9.30996 8.09 9.69996 7.7C10.09 7.31 10.72 7.31 11.11 7.7L14 10.59L16.89 7.7C17.28 7.31 17.91 7.31 18.3 7.7C18.69 8.09 18.69 8.72 18.3 9.11L15.41 12L18.3 14.89C18.68 15.27 18.68 15.91 18.3 16.3Z" fill="#969696"/>
</svg>
