<svg width="24" height="24" viewBox="0 0 24 24" fill="none" xmlns="http://www.w3.org/2000/svg">
<path fill-rule="evenodd" clip-rule="evenodd" d="M15.67 4H14V3C14 2.45 13.55 2 13 2H11C10.45 2 10 2.45 10 3V4H8.33C7.6 4 7 4.6 7 5.33V11H10.87L12.06 8.76C12.3 8.31 13 8.48 13 9V11H17V5.33C17 4.6 16.4 4 15.67 4Z" fill="#E8E8E8"/>
<path fill-rule="evenodd" clip-rule="evenodd" d="M13 12.5H14.17C14.55 12.5 14.79 12.9 14.61 13.24L11.94 18.24C11.7 18.69 11 18.52 11 18V14.5H9.83C9.45 14.5 9.21 14.1 9.39 13.76L10.87 11H7V20.67C7 21.4 7.6 22 8.33 22H15.66C16.4 22 17 21.4 17 20.67V11H13V12.5Z" fill="#969696"/>
</svg>
