<svg width="24" height="24" viewBox="0 0 24 24" fill="none" xmlns="http://www.w3.org/2000/svg">
<path fill-rule="evenodd" clip-rule="evenodd" d="M13.1301 14.56L14.5601 13.13L20.2901 18.86C20.6801 19.25 20.6801 19.89 20.2901 20.29C19.9001 20.68 19.2601 20.68 18.8601 20.29L13.1301 14.56V14.56ZM17.4201 8.83L18.6901 7.56C19.5801 6.67 19.4601 5.13 18.3801 4.48C14.4901 2.1 9.35006 2.59 5.98006 5.95C9.91006 4.65 14.2901 5.7 17.4201 8.83ZM5.95006 5.98C2.59006 9.35 2.10006 14.49 4.47006 18.38C5.13006 19.46 6.66006 19.59 7.55006 18.69L8.82006 17.42C5.70006 14.29 4.65006 9.91 5.95006 5.98ZM5.97006 5.96L5.96006 5.97C5.58006 8.98 7.13006 12.85 10.2601 15.99L15.9901 10.26C12.8601 7.13 8.98006 5.58 5.97006 5.96Z" fill="#969696"/>
</svg>
