<svg width="24" height="24" viewBox="0 0 24 24" fill="none" xmlns="http://www.w3.org/2000/svg">
<path fill-rule="evenodd" clip-rule="evenodd" d="M5.99999 13.0001C6.54999 12.4501 6.54999 11.5601 5.99999 11.0101V11.0001C5.44999 10.4501 4.54999 10.4501 3.99999 11.0001C3.44999 11.5501 3.44999 12.4501 3.99999 13.0001C4.54999 13.5501 5.44999 13.5501 5.99999 13.0001ZM20 11.0001C19.44 10.4401 18.55 10.4401 18 10.9901V11.0001C17.45 11.5501 17.45 12.4401 18 12.9901V13.0001C18.55 13.5501 19.44 13.5501 19.99 13.0001H20C20.55 12.4501 20.55 11.5501 20 11.0001ZM17 7.00005L12.71 2.71005C12.08 2.08005 11 2.52005 11 3.41005V9.59005L7.10999 5.70005C6.71999 5.31005 6.08999 5.31005 5.69999 5.70005C5.30999 6.09005 5.30999 6.72005 5.69999 7.11005L10.59 12.0001L5.69999 16.8901C5.30999 17.2801 5.30999 17.9101 5.69999 18.3001C6.08999 18.6901 6.71999 18.6901 7.10999 18.3001L11 14.4101V20.5901C11 21.4801 12.08 21.9301 12.71 21.3001L17 17.0001C17.39 16.6101 17.39 15.9801 17 15.5801L13.41 12.0001L17 8.42005C17.39 8.03005 17.39 7.39005 17 7.00005ZM14.88 16.2901L13 18.1701V14.4101L14.88 16.2901V16.2901ZM13 9.59005V5.83005L14.88 7.71005L13 9.59005Z" fill="#969696"/>
</svg>
