<svg width="24" height="24" viewBox="0 0 24 24" fill="none" xmlns="http://www.w3.org/2000/svg">
<path fill-rule="evenodd" clip-rule="evenodd" d="M17 7.00005L12.71 2.71005C12.08 2.08005 11 2.52005 11 3.41005V9.59005L7.11 5.70005C6.72 5.31005 6.09 5.31005 5.7 5.70005C5.31 6.09005 5.31 6.72005 5.7 7.11005L10.59 12.0001L5.7 16.8901C5.31 17.2801 5.31 17.9101 5.7 18.3001C6.09 18.6901 6.72 18.6901 7.11 18.3001L11 14.4101V20.5901C11 21.4801 12.08 21.9301 12.71 21.3001L17 17.0001C17.39 16.6101 17.39 15.9801 17 15.5901L13.41 12.0001L17 8.42005C17.39 8.03005 17.39 7.39005 17 7.00005ZM13 5.83005L14.88 7.71005L13 9.59005V5.83005ZM14.88 16.2901L13 18.1701V14.4101L14.88 16.2901V16.2901Z" fill="#969696"/>
</svg>
