<svg width="24" height="24" viewBox="0 0 24 24" fill="none" xmlns="http://www.w3.org/2000/svg">
<path fill-rule="evenodd" clip-rule="evenodd" d="M20 8.68992V4.99992C20 4.44992 19.55 3.99992 19 3.99992H15.31L12.71 1.39992C12.32 1.00992 11.69 1.00992 11.3 1.39992L8.69001 3.99992H5.00001C4.45001 3.99992 4.00001 4.44992 4.00001 4.99992V8.68992L1.40001 11.2899C1.01001 11.6799 1.01001 12.3099 1.40001 12.6999L4.00001 15.2999V18.9999C4.00001 19.5499 4.45001 19.9999 5.00001 19.9999H8.69001L11.29 22.5999C11.68 22.9899 12.31 22.9899 12.7 22.5999L15.3 19.9999H19C19.55 19.9999 20 19.5499 20 18.9999V15.3099L22.6 12.7099C22.99 12.3199 22.99 11.6899 22.6 11.2999L20 8.68992ZM12 17.9999C8.69001 17.9999 6.00001 15.3099 6.00001 11.9999C6.00001 8.68992 8.69001 5.99992 12 5.99992C15.31 5.99992 18 8.68992 18 11.9999C18 15.3099 15.31 17.9999 12 17.9999ZM12 7.99992C9.79001 7.99992 8.00001 9.78992 8.00001 11.9999C8.00001 14.2099 9.79001 15.9999 12 15.9999C14.21 15.9999 16 14.2099 16 11.9999C16 9.78992 14.21 7.99992 12 7.99992Z" fill="#969696"/>
</svg>
