<svg width="24" height="24" viewBox="0 0 24 24" fill="none" xmlns="http://www.w3.org/2000/svg">
<path fill-rule="evenodd" clip-rule="evenodd" d="M2.59014 3.95C2.94014 3.6 3.51014 3.6 3.86014 3.95L20.0501 20.15C20.4001 20.5 20.4001 21.07 20.0501 21.42C19.7001 21.77 19.1301 21.77 18.7801 21.42L17.3601 20H5.00014C3.90014 20 3.00014 19.1 3.00014 18V5.64L2.59014 5.22C2.24014 4.87 2.24014 4.3 2.59014 3.95ZM5.00014 7.64V18H15.3601L5.00014 7.64ZM19.0001 16.5V6H8.50012L6.50012 4H19.0001C20.1001 4 21.0001 4.9 21.0001 6V18C21.0001 18.15 20.9801 18.3 20.9501 18.45L19.0001 16.5Z" fill="#969696"/>
</svg>
