<svg width="24" height="24" viewBox="0 0 24 24" fill="none" xmlns="http://www.w3.org/2000/svg">
<g id="call_end">
<path id="Icon" fill-rule="evenodd" clip-rule="evenodd" d="M4.51003 15.4799L6.51003 13.8899C6.99003 13.5099 7.27003 12.9299 7.27003 12.3199V9.71986C10.29 8.73986 13.56 8.72986 16.59 9.71986V12.3299C16.59 12.9399 16.87 13.5199 17.35 13.8999L19.34 15.4799C20.14 16.1099 21.28 16.0499 22 15.3299L23.22 14.1099C24.02 13.3099 24.02 11.9799 23.17 11.2299C16.76 5.56986 7.10003 5.56986 0.690035 11.2299C-0.159965 11.9799 -0.159965 13.3099 0.640035 14.1099L1.86003 15.3299C2.57003 16.0499 3.71003 16.1099 4.51003 15.4799Z" fill="#969696"/>
</g>
</svg>
