<svg width="24" height="24" viewBox="0 0 24 24" fill="none" xmlns="http://www.w3.org/2000/svg">
<g id="code">
<path id="Icon" fill-rule="evenodd" clip-rule="evenodd" d="M8.69998 15.9002L4.79998 12.0002L8.69998 8.10021C9.08998 7.71021 9.08998 7.09021 8.69998 6.70021C8.30998 6.31021 7.68998 6.31021 7.29998 6.70021L2.70998 11.2902C2.31998 11.6802 2.31998 12.3102 2.70998 12.7002L7.29998 17.3002C7.68998 17.6902 8.30998 17.6902 8.69998 17.3002C9.08998 16.9102 9.08998 16.2902 8.69998 15.9002V15.9002ZM15.3 15.9002L19.2 12.0002L15.3 8.10021C14.91 7.71021 14.91 7.09021 15.3 6.70021C15.69 6.31021 16.31 6.31021 16.7 6.70021L21.29 11.2902C21.68 11.6802 21.68 12.3102 21.29 12.7002L16.7 17.3002C16.31 17.6902 15.69 17.6902 15.3 17.3002C14.91 16.9102 14.91 16.2902 15.3 15.9002V15.9002Z" fill="#969696"/>
</g>
</svg>
