<svg width="24" height="24" viewBox="0 0 24 24" fill="none" xmlns="http://www.w3.org/2000/svg">
<path d="M18 9.99993V7.16993C18 5.54993 16.78 4.08993 15.16 3.99993C13.95 3.93993 12.89 4.58993 12.36 5.56993C12.01 6.21993 12.53 6.99993 13.27 6.99993H13.28C13.62 6.99993 13.96 6.83993 14.12 6.53993C14.28 6.21993 14.62 5.99993 15 5.99993C15.55 5.99993 16 6.44993 16 6.99993V9.99993H8C9.1 9.99993 10 9.09993 10 7.99993V4.99993C10 4.44993 9.55 3.99993 9 3.99993H5C4.45 3.99993 4 4.44993 4 4.99993V7.99993C4 9.09993 4.9 9.99993 6 9.99993H3C2.45 9.99993 2 10.4499 2 10.9999C2 11.5499 2.45 11.9999 3 11.9999H4V18.9999C4 19.5499 4.45 19.9999 5 19.9999H19C19.55 19.9999 20 19.5499 20 18.9999V11.9999H21C21.55 11.9999 22 11.5499 22 10.9999C22 10.4499 21.55 9.99993 21 9.99993H18ZM13 17.9999H11V11.9999H13V17.9999Z" fill="#969696"/>
</svg>
