<svg width="24" height="24" viewBox="0 0 24 24" fill="none" xmlns="http://www.w3.org/2000/svg">
<path fill-rule="evenodd" clip-rule="evenodd" d="M16 8.64019V13.4402H18V7.68019C18 6.62419 17.1 5.76019 16 5.76019H10V7.68019H15C15.55 7.68019 16 8.1122 16 8.64019ZM19 15.3602H8.99999C8.44999 15.3602 7.99999 14.9282 7.99999 14.4002V4.80019C7.99999 4.27219 7.54999 3.84019 6.99999 3.84019C6.45 3.84019 5.99999 4.27219 5.99999 4.80019V5.76019H4.99999C4.44999 5.76019 3.99999 6.1922 3.99999 6.7202C3.99999 7.24819 4.44999 7.68019 4.99999 7.68019H5.99999V15.3602C5.99999 16.4162 6.9 17.2802 7.99999 17.2802H16V18.2402C16 18.7682 16.45 19.2002 17 19.2002C17.55 19.2002 18 18.7682 18 18.2402V17.2802H19C19.55 17.2802 20 16.8482 20 16.3202C20 15.7922 19.55 15.3602 19 15.3602ZM17.66 1.34419C15.99 0.489795 13.83 -0.105405 11.39 0.0385948L15.2 3.69619L16.53 2.41939C19.62 3.82099 21.87 6.61459 22.42 9.96499C22.48 10.3586 22.86 10.6274 23.28 10.5602C23.69 10.5026 23.97 10.1282 23.9 9.7346C23.3 6.0866 20.94 3.0146 17.66 1.34419ZM7.47 20.6306C4.38 19.229 2.13 16.4354 1.58 13.085C1.52 12.6914 1.13999 12.4226 0.719995 12.4898C0.309995 12.5474 0.029995 12.9218 0.099995 13.3154C0.699995 16.973 3.05999 20.045 6.33999 21.7154C8.00999 22.5698 10.17 23.165 12.61 23.021L8.8 19.3538L7.47 20.6306Z" fill="#969696"/>
</svg>
