<svg width="24" height="24" viewBox="0 0 24 24" fill="none" xmlns="http://www.w3.org/2000/svg">
<path fill-rule="evenodd" clip-rule="evenodd" d="M13 3.8699V3.8899C13 4.5599 13.45 5.1199 14.08 5.3199C16.93 6.2099 19 8.8599 19 11.9999C19 12.5199 18.94 13.0099 18.83 13.4899C18.69 14.1299 18.95 14.7899 19.52 15.1299L19.53 15.1399C20.39 15.6399 21.51 15.1899 21.74 14.2299C21.91 13.5099 22 12.7599 22 11.9999C22 7.4999 19.02 3.6799 14.92 2.4299C13.97 2.1399 13 2.8699 13 3.8699V3.8699ZM10.94 18.9199C7.95001 18.4899 5.52001 16.0599 5.08001 13.0799C4.54001 9.4799 6.74001 6.3099 9.91001 5.3199C10.55 5.1299 11 4.5599 11 3.8899V3.8699C11 2.8699 10.03 2.1399 9.07 2.4299C4.56 3.8099 1.41001 8.28991 2.09001 13.3899C2.68001 17.7699 6.22001 21.3099 10.6 21.8999C13.74 22.3199 16.64 21.2899 18.73 19.3699C19.47 18.6899 19.34 17.4799 18.47 16.9799C17.89 16.6399 17.17 16.7499 16.67 17.1999C15.2 18.5399 13.16 19.2499 10.94 18.9199Z" fill="#969696"/>
</svg>
