<svg width="24" height="24" viewBox="0 0 24 24" fill="none" xmlns="http://www.w3.org/2000/svg">
<g id="done_outline">
<path id="Icon" fill-rule="evenodd" clip-rule="evenodd" d="M20.47 5.6298C20.86 6.0198 20.86 6.6398 20.47 7.0298L9.12995 18.3698C8.73995 18.7598 8.11995 18.7598 7.72995 18.3698L3.52995 14.1698C3.13995 13.7798 3.13995 13.1598 3.52995 12.7698C3.91995 12.3798 4.53995 12.3798 4.92995 12.7698L8.42995 16.2698L19.07 5.6298C19.46 5.2398 20.08 5.2398 20.47 5.6298ZM18.36 3.5098L8.42995 13.4398L5.63995 10.6498C4.85995 9.8698 3.58995 9.8698 2.80995 10.6498L1.40995 12.0498C0.629951 12.8298 0.629951 14.0998 1.40995 14.8798L7.00995 20.4798C7.78995 21.2598 9.05995 21.2598 9.83995 20.4798L22.59 7.7398C23.37 6.9598 23.37 5.6898 22.59 4.9098L21.19 3.5098C20.4 2.7298 19.14 2.7298 18.36 3.5098Z" fill="#969696"/>
</g>
</svg>
