<svg width="24" height="24" viewBox="0 0 24 24" fill="none" xmlns="http://www.w3.org/2000/svg">
<g id="explore_off">
<path id="Icon" fill-rule="evenodd" clip-rule="evenodd" d="M17.9999 6L15.0899 12.26L20.3399 17.51C21.3899 15.93 21.9999 14.04 21.9999 12C21.9999 6.48 17.5199 2 11.9999 2C9.95993 2 8.06993 2.61 6.48993 3.66L11.7399 8.91L17.9999 6ZM2.80993 5.64L3.65993 6.49C2.28993 8.56 1.65993 11.17 2.17993 13.94C2.92993 17.89 6.09993 21.07 10.0599 21.82C12.8299 22.34 15.4399 21.72 17.5099 20.34L18.3599 21.19C18.7499 21.58 19.3799 21.58 19.7699 21.19C20.1599 20.8 20.1599 20.17 19.7699 19.78L4.21993 4.22C3.82993 3.83 3.19993 3.83 2.80993 4.22C2.41993 4.61 2.41993 5.25 2.80993 5.64ZM8.90993 11.74L12.2599 15.09L5.99993 18L8.90993 11.74V11.74Z" fill="#969696"/>
</g>
</svg>
