<svg width="24" height="24" viewBox="0 0 24 24" fill="none" xmlns="http://www.w3.org/2000/svg">
<g id="favorite_border">
<path id="Icon" fill-rule="evenodd" clip-rule="evenodd" d="M19.66 3.99017C17.02 2.19017 13.76 3.03017 12 5.09017C10.24 3.03017 6.97997 2.18017 4.33997 3.99017C2.93997 4.95017 2.05997 6.57017 1.99997 8.28017C1.85997 12.1602 5.29997 15.2702 10.55 20.0402L10.65 20.1302C11.41 20.8202 12.58 20.8202 13.34 20.1202L13.45 20.0202C18.7 15.2602 22.13 12.1502 22 8.27017C21.94 6.57017 21.06 4.95017 19.66 3.99017V3.99017ZM12.1 18.5502L12 18.6502L11.9 18.5502C7.13997 14.2402 3.99997 11.3902 3.99997 8.50017C3.99997 6.50017 5.49997 5.00017 7.49997 5.00017C9.03997 5.00017 10.54 5.99017 11.07 7.36017H12.94C13.46 5.99017 14.96 5.00017 16.5 5.00017C18.5 5.00017 20 6.50017 20 8.50017C20 11.3902 16.86 14.2402 12.1 18.5502Z" fill="#969696"/>
</g>
</svg>
