<svg width="24" height="24" viewBox="0 0 24 24" fill="none" xmlns="http://www.w3.org/2000/svg">
<path fill-rule="evenodd" clip-rule="evenodd" d="M11 3.22986C11 2.58986 10.41 2.09986 9.79 2.23986C8.67 2.49986 7.61 2.93986 6.67 3.53986C6.14 3.87986 6.06 4.63986 6.51 5.08986C6.83 5.40986 7.34 5.48986 7.72 5.24986C8.49 4.75986 9.34 4.39986 10.26 4.19986C10.7 4.09986 11 3.68986 11 3.22986ZM17.33 3.54986C16.39 2.94986 15.33 2.50986 14.21 2.24986C13.59 2.10986 13 2.58986 13 3.22986C13 3.67986 13.3 4.09986 13.74 4.18986C14.65 4.38986 15.51 4.75986 16.27 5.23986C16.66 5.47986 17.16 5.40986 17.48 5.07986C17.94 4.63986 17.87 3.88986 17.33 3.54986ZM20.77 10.9999C21.41 10.9999 21.9 10.4099 21.76 9.78986C21.5 8.66986 21.06 7.60986 20.46 6.66986C20.12 6.13986 19.36 6.05986 18.91 6.50986C18.59 6.82986 18.51 7.33986 18.75 7.71986C19.24 8.48986 19.6 9.33986 19.8 10.2499C19.9 10.6999 20.31 10.9999 20.77 10.9999ZM5.1 6.50986C4.64 6.05986 3.89 6.12986 3.55 6.66986C2.95 7.60986 2.51 8.66986 2.25 9.78986C2.11 10.4099 2.59 10.9999 3.23 10.9999C3.68 10.9999 4.1 10.6999 4.19 10.2599C4.39 9.34986 4.76 8.48986 5.24 7.72986C5.5 7.33986 5.42 6.82986 5.1 6.50986ZM3.23 12.9999C2.59 12.9999 2.1 13.5899 2.24 14.2099C2.5 15.3299 2.94 16.3799 3.54 17.3299C3.88 17.8699 4.64 17.9399 5.09 17.4899C5.41 17.1699 5.49 16.6599 5.24 16.2799C4.75 15.5199 4.39 14.6699 4.19 13.7499C4.1 13.2999 3.69 12.9999 3.23 12.9999ZM15 11.9999C15 10.3399 13.66 8.99986 12 8.99986C10.34 8.99986 9 10.3399 9 11.9999C9 13.6599 10.34 14.9999 12 14.9999C13.66 14.9999 15 13.6599 15 11.9999ZM18.9 17.4899C19.35 17.9399 20.11 17.8699 20.45 17.3399C21.05 16.3999 21.49 15.3399 21.75 14.2299C21.89 13.6099 21.4 13.0199 20.77 13.0199C20.32 13.0199 19.9 13.3199 19.81 13.7599C19.61 14.6699 19.24 15.5199 18.76 16.2899C18.5 16.6599 18.58 17.1699 18.9 17.4899ZM13 20.7699C13 21.4099 13.59 21.8999 14.21 21.7599C15.33 21.4999 16.38 21.0599 17.33 20.4599C17.87 20.1199 17.94 19.3599 17.49 18.9099C17.17 18.5899 16.66 18.5099 16.28 18.7599C15.52 19.2499 14.67 19.6099 13.75 19.8099C13.3 19.8999 13 20.3099 13 20.7699ZM6.67 20.4499C7.62 21.0499 8.67 21.4899 9.79 21.7499C10.41 21.8899 11 21.3999 11 20.7699C11 20.3199 10.7 19.8999 10.26 19.8099C9.35 19.6099 8.49 19.2399 7.73 18.7599C7.34 18.5199 6.84 18.5899 6.52 18.9199C6.06 19.3599 6.13 20.1099 6.67 20.4499Z" fill="#969696"/>
</svg>
