<svg width="24" height="24" viewBox="0 0 24 24" fill="none" xmlns="http://www.w3.org/2000/svg">
<path fill-rule="evenodd" clip-rule="evenodd" d="M18 14.0002C18 10.9102 14.4 6.1202 12.77 4.1302C12.37 3.6402 11.62 3.6402 11.22 4.1302C10.76 4.7002 10.14 5.4902 9.48998 6.4002L17.93 14.8402C17.97 14.5602 18 14.2802 18 14.0002ZM19.29 19.0102L6.11998 5.8402C5.72998 5.4502 5.09998 5.4502 4.70998 5.8402C4.31998 6.2302 4.31998 6.8602 4.70998 7.2502L7.31998 9.8602C6.54998 11.3302 5.99998 12.7902 5.99998 14.0002C5.99998 17.3102 8.68998 20.0002 12 20.0002C13.52 20.0002 14.9 19.4302 15.95 18.5002L17.87 20.4202C18.26 20.8102 18.89 20.8102 19.28 20.4202C19.68 20.0402 19.68 19.4002 19.29 19.0102Z" fill="#969696"/>
</svg>
