<svg width="24" height="24" viewBox="0 0 24 24" fill="none" xmlns="http://www.w3.org/2000/svg">
<path fill-rule="evenodd" clip-rule="evenodd" d="M16.5601 8.94022L8.32006 0.700215C7.93006 0.310215 7.30006 0.310215 6.91006 0.700215C6.52006 1.09021 6.52006 1.72021 6.91006 2.11021L8.59006 3.79021L3.44006 8.94022C2.85006 9.53022 2.85006 10.4802 3.44006 11.0602L8.94006 16.5602C9.23006 16.8502 9.62006 17.0002 10.0001 17.0002C10.3801 17.0002 10.7701 16.8502 11.0601 16.5602L16.5601 11.0602C17.1501 10.4802 17.1501 9.53022 16.5601 8.94022ZM5.21006 10.0002L10.0001 5.21021L14.7901 10.0002H5.21006ZM19.0001 11.5002C19.0001 11.5002 17.0001 13.6702 17.0001 15.0002C17.0001 16.1002 17.9001 17.0002 19.0001 17.0002C20.1001 17.0002 21.0001 16.1002 21.0001 15.0002C21.0001 13.6702 19.0001 11.5002 19.0001 11.5002Z" fill="#969696"/>
<path fill-rule="evenodd" clip-rule="evenodd" d="M2 20H22C23.1 20 24 20.9 24 22C24 23.1 23.1 24 22 24H2C0.9 24 0 23.1 0 22C0 20.9 0.9 20 2 20Z" fill="#E8E8E8"/>
</svg>
