<svg width="24" height="24" viewBox="0 0 24 24" fill="none" xmlns="http://www.w3.org/2000/svg">
<path fill-rule="evenodd" clip-rule="evenodd" d="M19.87 14C19.37 14 18.96 14.37 18.89 14.86C18.41 18.23 15.12 20.7 11.47 19.82C9.22001 19.28 7.56001 17.55 7.08001 15.29C6.27001 11.42 9.22001 8.00003 12.95 8.00003V10.79C12.95 11.24 13.49 11.46 13.8 11.14L17.59 7.35003C17.79 7.15003 17.79 6.84003 17.59 6.64003L13.8 2.85003C13.49 2.54003 12.95 2.76003 12.95 3.20003V6.00003C8.01001 6.00003 4.11001 10.48 5.11001 15.6C5.71001 18.71 8.01001 21.1 11.1 21.79C15.93 22.87 20.25 19.59 20.87 15.12C20.96 14.53 20.47 14 19.87 14ZM13.43 16.15C13.38 16.22 13.32 16.28 13.25 16.32C13.18 16.36 13.08 16.38 12.98 16.38C12.81 16.38 12.67 16.33 12.56 16.23C12.45 16.13 12.39 15.99 12.37 15.82H11.53C11.54 16.02 11.58 16.19 11.66 16.35C11.74 16.51 11.85 16.63 11.98 16.74C12.11 16.85 12.27 16.93 12.44 16.98C12.61 17.03 12.79 17.06 12.97 17.06C13.21 17.06 13.43 17.02 13.61 16.94C13.79 16.86 13.94 16.76 14.06 16.63C14.18 16.5 14.27 16.35 14.33 16.18C14.39 16.01 14.42 15.83 14.42 15.64C14.42 15.42 14.39 15.21 14.33 15.04C14.27 14.87 14.19 14.71 14.08 14.59C13.97 14.47 13.83 14.37 13.67 14.31C13.51 14.25 13.33 14.21 13.12 14.21C13.05 14.21 12.98 14.22 12.92 14.23C12.86 14.24 12.79 14.25 12.74 14.27C12.69 14.29 12.64 14.3 12.59 14.32C12.54 14.34 12.51 14.36 12.48 14.37L12.59 13.45H14.29V12.74H11.9L11.65 14.91L12.32 15.08C12.35 15.05 12.38 15.02 12.42 14.99C12.46 14.96 12.49 14.94 12.54 14.92C12.59 14.9 12.64 14.88 12.69 14.87C12.74 14.86 12.82 14.85 12.89 14.85C13.01 14.85 13.11 14.87 13.19 14.9C13.27 14.93 13.35 14.99 13.4 15.05C13.45 15.11 13.5 15.19 13.53 15.29C13.56 15.39 13.57 15.48 13.57 15.6C13.57 15.72 13.56 15.82 13.54 15.91C13.52 16 13.48 16.08 13.43 16.15V16.15Z" fill="#969696"/>
</svg>
