<svg width="24" height="24" viewBox="0 0 24 24" fill="none" xmlns="http://www.w3.org/2000/svg">
<g id="input">
<path id="Icon" fill-rule="evenodd" clip-rule="evenodd" d="M21 3.00977H3C1.9 3.00977 1 3.90977 1 5.00977V7.99977C1 8.54977 1.45 8.99977 2 8.99977C2.55 8.99977 3 8.54977 3 7.99977V5.98977C3 5.43977 3.45 4.98977 4 4.98977H20C20.55 4.98977 21 5.43977 21 5.98977V18.0198C21 18.5698 20.55 19.0198 20 19.0198H4C3.45 19.0198 3 18.5698 3 18.0198V15.9998C3 15.4498 2.55 14.9998 2 14.9998C1.45 14.9998 1 15.4498 1 15.9998V19.0098C1 20.0998 1.89 20.9898 2.98 20.9898H21C22.1 20.9898 23 20.0898 23 18.9898V5.00977C23 3.90977 22.1 3.00977 21 3.00977ZM11.85 15.1498L14.64 12.3598C14.84 12.1598 14.84 11.8498 14.64 11.6498L11.85 8.85977C11.54 8.53977 11 8.75977 11 9.20977V10.9998H2C1.45 10.9998 1 11.4498 1 11.9998C1 12.5498 1.45 12.9998 2 12.9998H11V14.7898C11 15.2398 11.54 15.4598 11.85 15.1498V15.1498Z" fill="#969696"/>
</g>
</svg>
