<svg width="24" height="24" viewBox="0 0 24 24" fill="none" xmlns="http://www.w3.org/2000/svg">
<g id="label_off">
<path id="Icon" fill-rule="evenodd" clip-rule="evenodd" d="M21.59 12.5801C21.84 12.2301 21.84 11.7701 21.59 11.4201L17.63 5.84007C17.27 5.33007 16.67 5.00007 16 5.00007H8.65998L19.36 15.7301L21.59 12.5801ZM2.71998 4.72007L3.58998 5.59007C3.22998 5.95007 2.99998 6.45007 2.99998 7.00007V17.0001C2.99998 18.1001 3.89998 19.0001 4.99998 19.0001H17L18.29 20.2901C18.68 20.6801 19.31 20.6801 19.7 20.2901C20.09 19.9001 20.09 19.2701 19.7 18.8801L4.13998 3.31007C3.75998 2.93007 3.12998 2.92007 2.73998 3.30007C2.32998 3.68007 2.32998 4.33007 2.71998 4.72007Z" fill="#969696"/>
</g>
</svg>
