<svg width="24" height="24" viewBox="0 0 24 24" fill="none" xmlns="http://www.w3.org/2000/svg">
<path fill-rule="evenodd" clip-rule="evenodd" d="M19.99 9.79008C20.5 9.39008 20.5 8.61008 19.99 8.21008L13.23 2.95008C12.51 2.39008 11.5 2.39008 10.77 2.95008L9.41001 4.02008L17.29 11.9001L19.99 9.79008ZM19.99 13.2801L19.98 13.2701C19.62 12.9901 19.12 12.9901 18.76 13.2701L18.71 13.3101L20.11 14.7101C20.48 14.3001 20.45 13.6401 19.99 13.2801ZM21.44 18.8801L4.12001 1.56008C3.73001 1.17008 3.10001 1.17008 2.71001 1.56008C2.32001 1.95008 2.32001 2.58008 2.71001 2.97008L6.23001 6.49008L4.01001 8.21008C3.50001 8.61008 3.50001 9.39008 4.01001 9.79008L10.77 15.0501C11.49 15.6101 12.5 15.6101 13.23 15.0501L14.1 14.3701L15.52 15.7901L12.6 18.0601C12.24 18.3401 11.73 18.3401 11.37 18.0601L5.22001 13.2801C4.86001 13.0001 4.36001 13.0001 4.00001 13.2801C3.49001 13.6801 3.49001 14.4501 4.00001 14.8501L10.76 20.1101C11.48 20.6701 12.49 20.6701 13.22 20.1101L16.94 17.2201L20.01 20.2901C20.4 20.6801 21.03 20.6801 21.42 20.2901C21.83 19.9001 21.83 19.2701 21.44 18.8801Z" fill="#969696"/>
</svg>
