<svg width="24" height="24" viewBox="0 0 24 24" fill="none" xmlns="http://www.w3.org/2000/svg">
<path fill-rule="evenodd" clip-rule="evenodd" d="M21.9399 11.2301C21.5699 8.76008 19.32 7.00008 16.82 7.00008H13.95C13.43 7.00008 13 7.43008 13 7.95008C13 8.47008 13.43 8.90008 13.95 8.90008H16.85C18.45 8.90008 19.89 10.0401 20.07 11.6301C20.24 13.0601 19.43 14.3201 18.22 14.8501L19.62 16.2501C21.25 15.2301 22.2599 13.3401 21.9399 11.2301V11.2301ZM4.11995 3.56008C3.72995 3.17008 3.09995 3.17008 2.70995 3.56008C2.31995 3.95008 2.31995 4.58008 2.70995 4.97008L5.10995 7.37008C3.16995 8.17008 1.83995 10.1401 2.01995 12.4101C2.22995 15.0501 4.58995 17.0001 7.22995 17.0001H10.05C10.57 17.0001 11 16.5701 11 16.0501C11 15.5301 10.57 15.1001 10.05 15.1001H7.15995C5.52995 15.1001 4.05995 13.9101 3.90995 12.2801C3.75995 10.5601 5.01995 9.11008 6.65995 8.93008L8.75995 11.0301C8.32995 11.1201 7.99995 11.4901 7.99995 11.9501V12.0501C7.99995 12.5701 8.42995 13.0001 8.94995 13.0001H10.73L13 15.2701V17.0001H14.73L18.03 20.3001C18.42 20.6901 19.05 20.6901 19.44 20.3001C19.83 19.9101 19.83 19.2801 19.44 18.8901L4.11995 3.56008ZM16 11.9501C16 11.4301 15.57 11.0001 15.05 11.0001H14.39L15.88 12.4901C15.95 12.3601 16 12.2101 16 12.0501V11.9501V11.9501Z" fill="#969696"/>
</svg>
