<svg width="24" height="24" viewBox="0 0 24 24" fill="none" xmlns="http://www.w3.org/2000/svg">
<path fill-rule="evenodd" clip-rule="evenodd" d="M5.23 2C4.04 2 3.11 3.04 3.24 4.22L5.01 20.23C5.13 21.23 5.97 22 7 22H17C18.03 22 18.87 21.23 18.99 20.23L20.76 4.22C20.89 3.04 19.96 2 18.77 2H5.23ZM12 19C10.34 19 9 17.66 9 16C9 14.45 10.81 12.05 11.62 11.06C11.82 10.81 12.19 10.81 12.39 11.06C13.2 12.06 15.01 14.45 15.01 16C15 17.66 13.66 19 12 19ZM18.33 8H5.67L5.35 5.11C5.29 4.52 5.75 4 6.35 4H17.65C18.24 4 18.71 4.52 18.64 5.11L18.33 8Z" fill="#969696"/>
</svg>
