<svg width="24" height="24" viewBox="0 0 24 24" fill="none" xmlns="http://www.w3.org/2000/svg">
<path fill-rule="evenodd" clip-rule="evenodd" d="M17 16.44L3.61 3.05C3.22 2.66 2.59 2.66 2.2 3.05C1.81 3.44 1.81 4.07 2.2 4.46L5 7.27V21C5 22.1 5.9 23 7 23H17C18.02 23 18.85 22.23 18.98 21.25L20 22.27C20.39 22.66 21.02 22.66 21.41 22.27C21.8 21.88 21.8 21.25 21.41 20.86L19 18.44L17 16.44ZM7 19V9.27L16.73 19H7ZM17 5V13.61L19 15.61V3C19 1.9 18.1 1 17 1H7C6.29 1 5.67 1.37 5.32 1.93L8.39 5H17Z" fill="#969696"/>
</svg>
