<svg width="24" height="24" viewBox="0 0 24 24" fill="none" xmlns="http://www.w3.org/2000/svg">
<path fill-rule="evenodd" clip-rule="evenodd" d="M22 3H6.99996C6.30996 3 5.76996 3.35 5.40996 3.88L0.369956 11.45C0.149956 11.79 0.149956 12.22 0.369956 12.56L5.40996 20.12C5.76996 20.64 6.37996 21 7.06996 21H22C23.1 21 24 20.1 24 19V5C24 3.9 23.1 3 22 3ZM8.99996 13.5C8.16996 13.5 7.49996 12.83 7.49996 12C7.49996 11.17 8.16996 10.5 8.99996 10.5C9.82996 10.5 10.5 11.17 10.5 12C10.5 12.83 9.82996 13.5 8.99996 13.5ZM14 13.5C13.17 13.5 12.5 12.83 12.5 12C12.5 11.17 13.17 10.5 14 10.5C14.83 10.5 15.5 11.17 15.5 12C15.5 12.83 14.83 13.5 14 13.5ZM19 13.5C18.17 13.5 17.5 12.83 17.5 12C17.5 11.17 18.17 10.5 19 10.5C19.83 10.5 20.5 11.17 20.5 12C20.5 12.83 19.83 13.5 19 13.5Z" fill="#969696"/>
</svg>
