<svg width="24" height="24" viewBox="0 0 24 24" fill="none" xmlns="http://www.w3.org/2000/svg">
<path d="M9.99988 15.4997V8.49973C9.99988 8.08973 10.4699 7.84973 10.7999 8.09973L15.4699 11.5997C15.7399 11.7997 15.7399 12.1997 15.4699 12.3997L10.7999 15.8997C10.4699 16.1497 9.99988 15.9097 9.99988 15.4997ZM21.9599 11.0497C22.5399 17.3097 17.3199 22.5297 11.0599 21.9497C6.62988 21.5397 2.93988 18.0997 2.15988 13.7197C1.89988 12.2997 1.96988 10.9397 2.27988 9.67973C2.41988 9.09973 3.03988 8.77972 3.58988 8.97972C4.05988 9.14972 4.33988 9.64973 4.21988 10.1397C4.01988 10.9597 3.94988 11.8397 4.02988 12.7497C4.39988 16.7897 7.91988 19.9997 11.9799 20.0097C16.7699 20.0197 20.5899 15.7997 19.9199 10.8897C19.4099 7.18973 16.2599 4.26973 12.5299 4.02973C11.6999 3.96973 10.8999 4.04973 10.1499 4.22973C9.65988 4.33973 9.15988 4.06973 8.98988 3.58973C8.78988 3.02973 9.10988 2.41973 9.67988 2.27973C11.4699 1.84973 13.4299 1.86973 15.4599 2.64973C19.0199 3.99973 21.6099 7.26973 21.9599 11.0497ZM5.49988 3.99973C4.66988 3.99973 3.99988 4.66973 3.99988 5.49973C3.99988 6.32973 4.66988 6.99973 5.49988 6.99973C6.32988 6.99973 6.99988 6.32973 6.99988 5.49973C6.99988 4.66973 6.32988 3.99973 5.49988 3.99973Z" fill="#969696"/>
</svg>
