<svg width="24" height="24" viewBox="0 0 24 24" fill="none" xmlns="http://www.w3.org/2000/svg">
<path fill-rule="evenodd" clip-rule="evenodd" d="M14 9.61V7H16C17.1 7 18 6.1 18 5C18 3.9 17.1 3 16 3H13C12.45 3 12 3.45 12 4V7.61L14 9.61ZM5.12 3.56C4.73 3.17 4.1 3.17 3.71 3.56C3.32 3.95 3.32 4.58 3.71 4.97L12 13.27V13.55C11.06 13.01 9.9 12.8 8.67 13.23C7.33 13.71 6.3 14.9 6.06 16.3C5.6 19.04 7.92 21.38 10.65 20.95C12.61 20.64 14 18.84 14 16.85V15.27L19.02 20.29C19.41 20.68 20.04 20.68 20.43 20.29C20.82 19.9 20.82 19.27 20.43 18.88L5.12 3.56Z" fill="#969696"/>
</svg>
