<svg width="24" height="24" viewBox="0 0 24 24" fill="none" xmlns="http://www.w3.org/2000/svg">
<path fill-rule="evenodd" clip-rule="evenodd" d="M4.5 10.9998C3.67157 10.9998 3 10.3282 3 9.49979C3 8.67136 3.67157 7.99979 4.5 7.99979C5.32843 7.99979 6 8.67136 6 9.49979C6 10.3282 5.32843 10.9998 4.5 10.9998ZM22.17 9.16979C22.17 12.7598 19.47 15.7098 16 16.1198V19.9998H18C18.55 19.9998 19 20.4498 19 20.9998C19 21.5498 18.55 21.9998 18 21.9998H4C3.45 21.9998 3 21.5498 3 20.9998V16.9998H2.5C2.22 16.9998 2 16.7798 2 16.4998V12.9998C2 12.4498 2.45 11.9998 3 11.9998H6C6.55 11.9998 7 12.4498 7 12.9998V16.4998C7 16.7798 6.78 16.9998 6.5 16.9998H6V19.9998H14.01V16.0598C10.76 15.5198 8.27 12.7398 8.18 9.35979C8.07 5.53979 11.23 2.22979 15.06 2.16979C18.98 2.10979 22.17 5.25979 22.17 9.16979Z" fill="#969696"/>
</svg>
