<svg width="24" height="24" viewBox="0 0 24 24" fill="none" xmlns="http://www.w3.org/2000/svg">
<g id="pan_tool">
<path id="Icon" fill-rule="evenodd" clip-rule="evenodd" d="M21.5001 4C20.6701 4 20.0001 4.67 20.0001 5.5V10.5C20.0001 10.78 19.7801 11 19.5001 11C19.2201 11 19.0001 10.78 19.0001 10.5V2.5C19.0001 1.67 18.3301 1 17.5001 1C16.6701 1 16.0001 1.67 16.0001 2.5V10.5C16.0001 10.78 15.7801 11 15.5001 11C15.2201 11 15.0001 10.78 15.0001 10.5V1.5C15.0001 0.67 14.3301 0 13.5001 0C12.6701 0 12.0001 0.67 12.0001 1.5V10.49C12.0001 10.77 11.7801 10.99 11.5001 10.99C11.2201 10.99 11.0001 10.77 11.0001 10.49V4.5C11.0001 3.67 10.3301 3 9.50012 3C8.67012 3 8.00012 3.67 8.00012 4.5V15.91L3.88012 13.56C3.30012 13.23 2.58012 13.32 2.10012 13.78C1.50012 14.36 1.48012 15.32 2.07012 15.91L8.85012 22.8C9.60012 23.57 10.6201 24 11.7001 24H19.0001C21.2101 24 23.0001 22.21 23.0001 20V5.5C23.0001 4.67 22.3301 4 21.5001 4Z" fill="#969696"/>
</g>
</svg>
