<svg width="24" height="24" viewBox="0 0 24 24" fill="none" xmlns="http://www.w3.org/2000/svg">
<g id="perm_data_setting">
<path id="Icon" fill-rule="evenodd" clip-rule="evenodd" d="M18.9901 11.5C19.3301 11.5 19.6701 11.53 20.0001 11.57V2.42003C20.0001 1.53003 18.9201 1.08003 18.2901 1.71003L1.71005 18.29C1.08005 18.92 1.52005 20 2.41005 20H11.5601C11.5201 19.67 11.4901 19.34 11.4901 19C11.4901 14.86 14.8501 11.5 18.9901 11.5V11.5ZM22.7001 19.49C22.7201 19.33 22.7401 19.17 22.7401 19C22.7401 18.83 22.7301 18.67 22.7001 18.51L23.7601 17.68C23.8501 17.6 23.8801 17.47 23.8201 17.36L22.8201 15.63C22.7601 15.52 22.6301 15.48 22.5101 15.52L21.2701 16.02C21.0101 15.82 20.7301 15.65 20.4201 15.53L20.2301 14.21C20.2201 14.09 20.1101 14 19.9901 14H17.9901C17.8701 14 17.7601 14.09 17.7401 14.21L17.5501 15.53C17.2501 15.66 16.9601 15.82 16.7001 16.02L15.4601 15.52C15.3501 15.48 15.2201 15.52 15.1501 15.63L14.1501 17.36C14.0901 17.47 14.1101 17.6 14.2101 17.68L15.2701 18.51C15.2501 18.67 15.2401 18.83 15.2401 19C15.2401 19.17 15.2501 19.33 15.2701 19.49L14.2101 20.32C14.1201 20.4 14.0901 20.53 14.1501 20.64L15.1501 22.37C15.2101 22.48 15.3401 22.52 15.4601 22.48L16.7001 21.98C16.9601 22.18 17.2401 22.35 17.5501 22.47L17.7401 23.79C17.7601 23.91 17.8601 24 17.9901 24H19.9901C20.1101 24 20.2201 23.91 20.2401 23.79L20.4301 22.47C20.7301 22.34 21.0201 22.18 21.2701 21.98L22.5201 22.48C22.6301 22.52 22.7601 22.48 22.8301 22.37L23.8301 20.64C23.8901 20.53 23.8601 20.4 23.7701 20.32L22.7001 19.49ZM18.9901 20.5C18.1601 20.5 17.4901 19.83 17.4901 19C17.4901 18.17 18.1601 17.5 18.9901 17.5C19.8201 17.5 20.4901 18.17 20.4901 19C20.4901 19.83 19.8201 20.5 18.9901 20.5Z" fill="#969696"/>
</g>
</svg>
