<svg width="24" height="24" viewBox="0 0 24 24" fill="none" xmlns="http://www.w3.org/2000/svg">
<g id="perm_scan_wifi">
<path id="Icon" fill-rule="evenodd" clip-rule="evenodd" d="M11.9999 3C7.40989 3 3.85989 4.53 0.889888 6.59C0.399888 6.92 0.299888 7.59 0.669888 8.05L10.4499 20.09C11.2499 21.07 12.7499 21.08 13.5499 20.09L23.3299 8.07C23.6999 7.61 23.5999 6.94 23.1099 6.61C20.1399 4.54 16.5899 3 11.9999 3ZM11.9999 16C11.4499 16 10.9999 15.55 10.9999 15V11C10.9999 10.45 11.4499 10 11.9999 10C12.5499 10 12.9999 10.45 12.9999 11V15C12.9999 15.55 12.5499 16 11.9999 16ZM10.9999 8V6H12.9999V8H10.9999Z" fill="#969696"/>
</g>
</svg>
