<svg width="24" height="24" viewBox="0 0 24 24" fill="none" xmlns="http://www.w3.org/2000/svg">
<path fill-rule="evenodd" clip-rule="evenodd" d="M16 3C15.45 3 15 3.45 15 4V9C15 9.55 15.45 10 16 10C16.55 10 17 9.55 17 9V4C17 3.45 16.55 3 16 3ZM19 4V9C19 9.55 19.45 10 20 10C20.55 10 21 9.55 21 9V4C21 3.45 20.55 3 20 3C19.45 3 19 3.45 19 4ZM19.23 15.26L16.69 14.97C16.08 14.9 15.48 15.11 15.05 15.54L13.21 17.38C10.38 15.94 8.06004 13.63 6.62004 10.79L8.47004 8.94C8.90004 8.51 9.11004 7.91 9.04004 7.3L8.75004 4.78C8.63004 3.77 7.78004 3.01 6.76004 3.01H5.03004C3.90004 3.01 2.96004 3.95 3.03004 5.08C3.56004 13.62 10.39 20.44 18.92 20.97C20.05 21.04 20.99 20.1 20.99 18.97V17.24C21 16.23 20.24 15.38 19.23 15.26Z" fill="#969696"/>
</svg>
