<svg width="24" height="24" viewBox="0 0 24 24" fill="none" xmlns="http://www.w3.org/2000/svg">
<path d="M22 11.9999C22 6.51991 17.6 2.06991 12.14 1.99991C8.51996 1.94991 5.28996 4.02991 3.42996 7.13991C0.0999564 12.6899 2.97996 18.2699 7.99996 20.2499V20.4999C7.99996 21.3299 8.66996 21.9999 9.49996 21.9999H14.5C15.33 21.9999 16 21.3299 16 20.4999V20.2499C19.53 18.8599 22 15.6899 22 11.9999ZM20 11.9999H16V5.07991C18.39 6.46991 20 9.04991 20 11.9999ZM14 4.25991V11.9999H9.99996V4.25991C10.64 4.09991 11.31 3.99991 12 3.99991C12.69 3.99991 13.36 4.09991 14 4.25991ZM3.99996 11.9999C3.99996 9.04991 5.60996 6.46991 7.99996 5.07991V11.9999H3.99996Z" fill="#969696"/>
</svg>
