<svg width="24" height="24" viewBox="0 0 24 24" fill="none" xmlns="http://www.w3.org/2000/svg">
<g id="rss_feed">
<path id="Icon" fill-rule="evenodd" clip-rule="evenodd" d="M6.18 19.9998C4.97602 19.9998 4 19.0238 4 17.8198C4 16.6159 4.97602 15.6398 6.18 15.6398C7.38398 15.6398 8.36 16.6159 8.36 17.8198C8.36 19.0238 7.38398 19.9998 6.18 19.9998ZM5.59 10.2298C9.79 10.8998 13.1 14.2098 13.78 18.4098C13.91 19.2498 13.22 19.9998 12.37 19.9998C11.66 19.9998 11.09 19.4698 10.97 18.7698C10.45 15.8498 8.15 13.5398 5.23 13.0298C4.53 12.9098 4 12.3398 4 11.6298C4 10.7798 4.75 10.0898 5.59 10.2298ZM5.56 4.51984C12.91 5.24984 18.75 11.0998 19.48 18.4398C19.56 19.2698 18.9 19.9998 18.06 19.9998C17.33 19.9998 16.73 19.4498 16.66 18.7198C16.06 12.7098 11.28 7.92984 5.27 7.32984C4.55 7.25984 4 6.65984 4 5.92984C4 5.09984 4.73 4.42984 5.56 4.51984Z" fill="#969696"/>
</g>
</svg>
