<svg width="24" height="24" viewBox="0 0 24 24" fill="none" xmlns="http://www.w3.org/2000/svg">
<g id="settings_input_antenna">
<path id="Icon" fill-rule="evenodd" clip-rule="evenodd" d="M12.0001 5C8.52011 5 5.63011 7.54 5.09011 10.87C4.99011 11.46 5.48011 12 6.09011 12C6.58011 12 6.99011 11.64 7.07011 11.15C7.48011 8.79 9.53011 7 12.0001 7C14.4701 7 16.5201 8.79 16.9301 11.15C17.0101 11.64 17.4201 12 17.9101 12C18.5201 12 19.0001 11.46 18.9001 10.87C18.3701 7.54 15.4801 5 12.0001 5ZM13.0001 14.29C14.0701 13.81 14.7601 12.63 14.4101 11.3C14.1901 10.49 13.5401 9.83 12.7301 9.6C11.0401 9.12 9.50011 10.38 9.50011 12C9.50011 13.02 10.1201 13.9 11.0001 14.29V17.59L8.29011 20.29C7.90011 20.68 7.90011 21.31 8.29011 21.7C8.68011 22.09 9.31011 22.09 9.70011 21.7L12.0001 19.4L14.3001 21.7C14.6901 22.09 15.3201 22.09 15.7101 21.7C16.1001 21.31 16.1001 20.68 15.7101 20.29L13.0001 17.59V14.29ZM12.0001 1C6.30011 1 1.61011 5.34 1.05011 10.9C1.00011 11.49 1.46011 12 2.05011 12C2.56011 12 2.99011 11.62 3.04011 11.12C3.48011 6.56 7.33011 3 12.0001 3C16.6701 3 20.5201 6.56 20.9601 11.12C21.0101 11.62 21.4401 12 21.9501 12C22.5401 12 23.0101 11.49 22.9501 10.9C22.3901 5.34 17.7001 1 12.0001 1Z" fill="#969696"/>
</g>
</svg>
