<svg width="24" height="24" viewBox="0 0 24 24" fill="none" xmlns="http://www.w3.org/2000/svg">
<g id="settings_backup_restore">
<path id="Icon" fill-rule="evenodd" clip-rule="evenodd" d="M14 12.0001C14 10.9001 13.1 10.0001 12 10.0001C10.9 10.0001 10 10.9001 10 12.0001C10 13.1001 10.9 14.0001 12 14.0001C13.1 14.0001 14 13.1001 14 12.0001ZM12.26 3.00007C7.17003 2.86007 3.00003 6.95007 3.00003 12.0001H1.21003C0.760031 12.0001 0.540031 12.5401 0.860031 12.8501L3.65003 15.6401C3.85003 15.8401 4.16003 15.8401 4.36003 15.6401L7.15003 12.8501C7.46003 12.5401 7.24003 12.0001 6.79003 12.0001H5.00003C5.00003 8.10007 8.18003 4.95007 12.1 5.00007C15.82 5.05007 18.95 8.18007 19 11.9001C19.05 15.8101 15.9 19.0001 12 19.0001C10.75 19.0001 9.58003 18.6601 8.56003 18.0901C8.17003 17.8701 7.69003 17.9501 7.38003 18.2701C6.92003 18.7301 7.01003 19.5201 7.58003 19.8401C8.89003 20.5701 10.39 21.0001 12 21.0001C17.05 21.0001 21.14 16.8301 21 11.7401C20.87 7.05007 16.95 3.13007 12.26 3.00007Z" fill="#969696"/>
</g>
</svg>
