<svg width="24" height="24" viewBox="0 0 24 24" fill="none" xmlns="http://www.w3.org/2000/svg">
<path fill-rule="evenodd" clip-rule="evenodd" d="M10.59 9.17L6.12 4.7C5.73 4.31 5.1 4.31 4.71 4.7C4.32 5.09 4.32 5.72 4.71 6.11L9.17 10.57L10.59 9.17ZM15.35 4.85L16.54 6.04L4.7 17.88C4.31 18.27 4.31 18.9 4.7 19.29C5.09 19.68 5.72 19.68 6.11 19.29L17.96 7.46L19.15 8.65C19.46 8.96 20 8.74 20 8.29V4.5C20 4.22 19.78 4 19.5 4H15.71C15.26 4 15.04 4.54 15.35 4.85V4.85ZM14.83 13.41L13.42 14.82L16.55 17.95L15.35 19.15C15.04 19.46 15.26 20 15.71 20H19.5C19.78 20 20 19.78 20 19.5V15.71C20 15.26 19.46 15.04 19.15 15.36L17.96 16.55L14.83 13.41V13.41Z" fill="#969696"/>
</svg>
