<svg width="24" height="24" viewBox="0 0 24 24" fill="none" xmlns="http://www.w3.org/2000/svg">
<path fill-rule="evenodd" clip-rule="evenodd" d="M15.5 16.0001H3.5C2.67 16.0001 2 16.6701 2 17.5001C2 18.3301 2.67 19.0001 3.5 19.0001H15.5C16.33 19.0001 17 18.3301 17 17.5001C17 16.6701 16.33 16.0001 15.5 16.0001ZM18.85 7.73009C19.47 7.12009 19.85 6.28009 19.85 5.35009C19.85 3.84009 18.85 2.56009 17.47 2.14009C16.99 2.00009 16.5 2.36009 16.5 2.86009C16.5 3.19009 16.71 3.48009 17.02 3.57009C17.79 3.80009 18.35 4.51009 18.35 5.35009C18.35 6.17009 17.82 6.86009 17.08 7.11009C16.75 7.22009 16.5 7.50009 16.5 7.85009V8.00009C16.5 8.37009 16.77 8.69009 17.14 8.75009C19.07 9.06009 20.5 10.7501 20.5 12.7701V14.2501C20.5 14.6601 20.84 15.0001 21.25 15.0001C21.66 15.0001 22 14.6601 22 14.2501V12.7601C22 10.5401 20.72 8.62009 18.85 7.73009ZM16.03 10.2001H14.73C13.71 10.2001 12.79 9.47009 12.66 8.45009C12.54 7.50009 13.12 6.75009 13.96 6.52009C14.28 6.43009 14.5 6.14009 14.5 5.80009C14.5 5.31009 14.04 4.94009 13.57 5.08009C12.15 5.49009 11.12 6.81009 11.15 8.36009C11.18 10.2001 12.77 11.6501 14.61 11.6501H16.03C17.08 11.6501 18 12.3901 18 13.7001V14.2501C18 14.6601 18.33 15.0001 18.75 15.0001H18.76C19.17 15.0001 19.51 14.6701 19.51 14.2501V13.3601C19.5 11.5501 17.9 10.2001 16.03 10.2001ZM18 16.0001H19.5V19.0001H18V16.0001ZM20.5 16.0001H22V19.0001H20.5V16.0001Z" fill="#969696"/>
</svg>
