<svg width="24" height="24" viewBox="0 0 24 24" fill="none" xmlns="http://www.w3.org/2000/svg">
<g id="swap_horiz">
<path id="Icon" fill-rule="evenodd" clip-rule="evenodd" d="M6.14003 11.8598L3.36003 14.6498C3.17003 14.8498 3.17003 15.1598 3.36003 15.3598L6.14003 18.1498C6.45003 18.4698 6.99003 18.2398 6.99003 17.7998V15.9998H13C13.55 15.9998 14 15.5498 14 14.9998C14 14.4498 13.55 13.9998 13 13.9998H6.99003V12.2098C6.99003 11.7598 6.45003 11.5398 6.14003 11.8598V11.8598ZM20.65 8.64984L17.87 5.85984C17.56 5.53984 17.02 5.76984 17.02 6.20984V7.99984H11C10.45 7.99984 10 8.44984 10 8.99984C10 9.54984 10.45 9.99984 11 9.99984H17.01V11.7898C17.01 12.2398 17.55 12.4598 17.86 12.1398L20.64 9.34984C20.84 9.15984 20.84 8.83984 20.65 8.64984V8.64984Z" fill="#969696"/>
</g>
</svg>
