<svg width="24" height="24" viewBox="0 0 24 24" fill="none" xmlns="http://www.w3.org/2000/svg">
<g id="swap_calls">
<path id="Icon" fill-rule="evenodd" clip-rule="evenodd" d="M17.65 4.35015L14.86 7.14015C14.54 7.46015 14.76 8.00015 15.21 8.00015H17V14.8801C17 15.8801 16.33 16.8101 15.34 16.9701C14.09 17.1801 13 16.2101 13 15.0001V8.17015C13 6.08015 11.47 4.22015 9.39003 4.02015C7.01003 3.79015 5.00003 5.66015 5.00003 8.00015V15.0001H3.21003C2.76003 15.0001 2.54003 15.5401 2.86003 15.8501L5.65003 18.6401C5.85003 18.8401 6.16003 18.8401 6.36003 18.6401L9.15003 15.8501C9.46003 15.5401 9.24003 15.0001 8.79003 15.0001H7.00003V8.12015C7.00003 7.12015 7.67003 6.19015 8.66003 6.03015C9.91003 5.82015 11 6.79015 11 8.00015V14.8301C11 16.9201 12.53 18.7801 14.61 18.9801C16.99 19.2101 19 17.3401 19 15.0001V8.00015H20.79C21.24 8.00015 21.46 7.46015 21.14 7.15015L18.35 4.36015C18.16 4.16015 17.84 4.16015 17.65 4.35015V4.35015Z" fill="#969696"/>
</g>
</svg>
