<svg width="24" height="24" viewBox="0 0 24 24" fill="none" xmlns="http://www.w3.org/2000/svg">
<path d="M23 7.99996C22.9978 6.41236 22.456 4.87265 21.4636 3.63351C20.4711 2.39438 19.0869 1.52942 17.5381 1.18059C15.9893 0.83176 14.3679 1.01978 12.94 1.71379C11.5121 2.4078 10.3626 3.56658 9.68 4.99996H7V6.99996H4.5C4.18761 6.99948 3.88286 7.09655 3.6283 7.27761C3.37373 7.45868 3.18205 7.7147 3.08 8.00996L1 14V22C1 22.2652 1.10536 22.5195 1.29289 22.7071C1.48043 22.8946 1.73478 23 2 23H3C3.26522 23 3.51957 22.8946 3.70711 22.7071C3.89464 22.5195 4 22.2652 4 22V21H16V22C16 22.2652 16.1054 22.5195 16.2929 22.7071C16.4804 22.8946 16.7348 23 17 23H18C18.2652 23 18.5196 22.8946 18.7071 22.7071C18.8946 22.5195 19 22.2652 19 22V14.32C20.1954 13.7516 21.2055 12.8564 21.9133 11.738C22.6212 10.6196 22.9979 9.32358 23 7.99996V7.99996ZM4.5 8.49996H9.03C9.14474 10.2051 9.88551 11.8077 11.11 13H3L4.5 8.49996ZM4.5 18C4.10218 18 3.72064 17.8419 3.43934 17.5606C3.15804 17.2793 3 16.8978 3 16.5C3 16.1021 3.15804 15.7206 3.43934 15.4393C3.72064 15.158 4.10218 15 4.5 15C4.89782 15 5.27936 15.158 5.56066 15.4393C5.84196 15.7206 6 16.1021 6 16.5C6 16.8978 5.84196 17.2793 5.56066 17.5606C5.27936 17.8419 4.89782 18 4.5 18ZM15.5 18C15.1022 18 14.7206 17.8419 14.4393 17.5606C14.158 17.2793 14 16.8978 14 16.5C14 16.1021 14.158 15.7206 14.4393 15.4393C14.7206 15.158 15.1022 15 15.5 15C15.8978 15 16.2794 15.158 16.5607 15.4393C16.842 15.7206 17 16.1021 17 16.5C17 16.8978 16.842 17.2793 16.5607 17.5606C16.2794 17.8419 15.8978 18 15.5 18V18ZM18.43 12.37L18.22 12.48L18.04 12.57C17.9025 12.6296 17.7623 12.683 17.62 12.73L17.4 12.8L17.17 12.86L16.97 12.91C16.2866 13.0443 15.5826 13.0344 14.9032 12.8809C14.2239 12.7274 13.5841 12.4336 13.0248 12.0184C12.4656 11.6033 11.9993 11.0758 11.6558 10.4699C11.3122 9.86402 11.0991 9.19303 11.03 8.49996C11.0097 8.33407 10.9997 8.16708 11 7.99996L11.02 7.52996L11.04 7.35996L11.08 7.07996L11.12 6.86996L11.17 6.65996L11.24 6.41996L11.29 6.28996C11.6857 5.18041 12.4612 4.24663 13.4792 3.65388C14.4972 3.06113 15.6921 2.84764 16.8523 3.0512C18.0126 3.25476 19.0635 3.86223 19.8189 4.76611C20.5743 5.66998 20.9856 6.81198 20.98 7.98996C20.988 8.88186 20.7554 9.75943 20.3067 10.5302C19.8579 11.3011 19.2096 11.9366 18.43 12.37V12.37ZM15 3.99996H17V8.99996H15V3.99996ZM15 9.99996H17V12H15V9.99996Z" fill="#969696"/>
</svg>
