<svg width="24" height="24" viewBox="0 0 24 24" fill="none" xmlns="http://www.w3.org/2000/svg">
<g id="track_changes">
<path id="Icon" fill-rule="evenodd" clip-rule="evenodd" d="M18.32 5.67993C17.96 6.03993 17.93 6.59993 18.25 6.99993C19.7 8.81993 20.46 11.3099 19.78 13.9199C18.99 16.9699 16.6 19.2499 13.57 19.8599C8.47002 20.8699 4.00002 16.9299 4.00002 11.9999C4.00002 7.91993 7.05002 4.55993 11 4.06993V6.08993C7.87002 6.61993 5.57002 9.54993 6.07002 12.9199C6.46002 15.5299 8.63002 17.6299 11.25 17.9499C14.89 18.3999 18 15.5599 18 11.9999C18 10.7499 17.62 9.59993 16.97 8.63993C16.63 8.13993 15.9 8.10993 15.47 8.52993L15.46 8.53993C15.12 8.87993 15.09 9.40993 15.35 9.80993C15.95 10.7299 16.19 11.9099 15.84 13.1299C15.45 14.4999 14.3 15.5899 12.9 15.8999C10.3 16.4699 8.00002 14.5099 8.00002 11.9999C8.00002 10.1399 9.28002 8.58993 11 8.13993V10.2799C10.4 10.6299 10 11.2599 10 11.9999C10 13.0999 10.9 13.9999 12 13.9999C13.1 13.9999 14 13.0999 14 11.9999C14 11.2599 13.6 10.6199 13 10.2799V2.70993C13 2.31993 12.68 1.99993 12.29 1.99993C6.93002 1.79993 2.31002 6.05993 2.02002 11.3999C1.66002 17.9499 7.43002 23.2199 14.03 21.7999C17.91 20.9699 20.91 17.9999 21.78 14.1299C22.49 10.9699 21.58 7.96993 19.81 5.75993C19.44 5.28993 18.74 5.25993 18.32 5.67993Z" fill="#969696"/>
</g>
</svg>
