<svg width="24" height="24" viewBox="0 0 24 24" fill="none" xmlns="http://www.w3.org/2000/svg">
<g id="unpublished">
<path id="Icon" d="M20.4901 20.4898L3.51012 3.50978C3.12012 3.11978 2.49012 3.11978 2.10012 3.50978C1.71012 3.89978 1.71012 4.52978 2.10012 4.91978L3.66012 6.47978C2.41012 8.35978 1.78012 10.6898 2.07012 13.1798C2.60012 17.7198 6.28012 21.3998 10.8101 21.9198C13.3001 22.2098 15.6201 21.5798 17.5101 20.3298L19.0701 21.8898C19.4601 22.2798 20.0901 22.2798 20.4801 21.8898C20.8801 21.5098 20.8801 20.8798 20.4901 20.4898ZM9.88012 15.8898L7.05012 13.0598C6.66012 12.6698 6.66012 12.0398 7.05012 11.6498C7.44012 11.2598 8.07012 11.2598 8.46012 11.6498L10.5801 13.7698L10.7601 13.5898L12.1701 14.9998L11.2901 15.8798C10.9001 16.2798 10.2701 16.2798 9.88012 15.8898ZM13.5901 10.7598L6.49012 3.65978C8.37012 2.40978 10.7001 1.77978 13.1901 2.06978C17.7301 2.59978 21.4101 6.27978 21.9301 10.8098C22.2201 13.2998 21.5901 15.6298 20.3401 17.5098L15.0001 12.1698L16.9401 10.2298C17.3301 9.83978 17.3301 9.20978 16.9401 8.81978C16.5501 8.42978 15.9201 8.42978 15.5301 8.81978L13.5901 10.7598Z" fill="#969696"/>
</g>
</svg>
