<svg width="24" height="24" viewBox="0 0 24 24" fill="none" xmlns="http://www.w3.org/2000/svg">
<g id="update">
<path id="Icon" fill-rule="evenodd" clip-rule="evenodd" d="M11 8.75024V12.4302C11 12.7802 11.19 13.1102 11.49 13.2902L14.61 15.1402C14.97 15.3502 15.43 15.2302 15.64 14.8802C15.85 14.5202 15.74 14.0602 15.38 13.8502L12.51 12.1402V8.74024C12.5 8.34024 12.16 8.00024 11.75 8.00024C11.34 8.00024 11 8.34024 11 8.75024V8.75024ZM21 9.50024V4.21024C21 3.76024 20.46 3.54024 20.15 3.86024L18.37 5.64024C16.56 3.83024 13.98 2.79024 11.16 3.04024C6.97001 3.42024 3.52001 6.79024 3.06001 10.9802C2.46001 16.4002 6.69001 21.0002 12 21.0002C16.59 21.0002 20.38 17.5602 20.93 13.1202C21 12.5202 20.53 12.0002 19.93 12.0002C19.43 12.0002 19.01 12.3702 18.95 12.8602C18.52 16.3502 15.51 19.0502 11.9 19.0002C8.19001 18.9502 5.06001 15.8202 5.00001 12.1002C4.94001 8.20024 8.11001 5.00024 12 5.00024C13.93 5.00024 15.68 5.79024 16.95 7.05024L14.86 9.14024C14.54 9.46024 14.76 10.0002 15.21 10.0002H20.5C20.78 10.0002 21 9.78024 21 9.50024Z" fill="#969696"/>
</g>
</svg>
