<svg width="24" height="24" viewBox="0 0 24 24" fill="none" xmlns="http://www.w3.org/2000/svg">
<g id="update_disabled">
<path id="Icon" d="M20.4901 20.4902L3.51012 3.5102C3.12012 3.1202 2.49012 3.1202 2.10012 3.5102C1.71012 3.9002 1.71012 4.5302 2.10012 4.9202L4.41012 7.2302C3.57012 8.5602 3.05012 10.0902 3.00012 11.7402C2.86012 16.8302 6.94012 21.0002 12.0001 21.0002C13.7601 21.0002 15.3901 20.4802 16.7801 19.6102L19.0701 21.9002C19.4601 22.2902 20.0901 22.2902 20.4801 21.9002C20.8801 21.5102 20.8801 20.8802 20.4901 20.4902ZM10.7201 18.8902C7.94012 18.4002 5.68012 16.1802 5.14012 13.4202C4.80012 11.7002 5.11012 10.0602 5.86012 8.6902L15.3201 18.1502C13.9801 18.8702 12.4001 19.1802 10.7201 18.8902ZM13.0001 8.0002V10.1702L11.0001 8.1702V8.0002C11.0001 7.4502 11.4501 7.0002 12.0001 7.0002C12.5501 7.0002 13.0001 7.4502 13.0001 8.0002ZM20.7201 14.2302C20.4901 15.1502 20.1101 16.0002 19.6201 16.7802L18.1501 15.3102C18.4201 14.8102 18.6401 14.2802 18.7801 13.7202C18.8901 13.3002 19.2901 13.0002 19.7301 13.0002C20.3801 13.0002 20.8801 13.6102 20.7201 14.2302ZM7.24012 4.4102C8.70012 3.4802 10.4201 2.9602 12.2401 3.0002C14.8901 3.0702 17.2401 4.2802 18.8401 6.1602L20.1501 4.8502C20.4601 4.5402 21.0001 4.7602 21.0001 5.2102V9.5002C21.0001 9.7802 20.7801 10.0002 20.5001 10.0002H16.2101C15.7601 10.0002 15.5401 9.4602 15.8601 9.1502L17.4101 7.6002C16.1201 6.0202 14.1801 5.0002 12.0001 5.0002C10.8001 5.0002 9.67012 5.3102 8.68012 5.8502L7.24012 4.4102Z" fill="#969696"/>
</g>
</svg>
