<svg width="24" height="24" viewBox="0 0 24 24" fill="none" xmlns="http://www.w3.org/2000/svg">
<path fill-rule="evenodd" clip-rule="evenodd" d="M18 7.00014H16C15.45 7.00014 15 7.45014 15 8.00014V10.0001C15 10.5501 15.45 11.0001 16 11.0001V13.0001H13V5.00014H14C14.41 5.00014 14.65 4.53014 14.4 4.20014L12.4 1.53014C12.2 1.26014 11.8 1.26014 11.6 1.53014L9.59999 4.20014C9.34999 4.53014 9.58999 5.00014 9.99999 5.00014H11V13.0001H7.99999V10.9301C8.82999 10.4901 9.37999 9.57014 9.13999 8.50014C8.96999 7.73014 8.36999 7.10014 7.61999 6.89014C6.14999 6.48014 4.79999 7.59014 4.79999 9.00014C4.79999 9.85014 5.29999 10.5601 5.99999 10.9301V13.0001C5.99999 14.1001 6.89999 15.0001 7.99999 15.0001H11V18.0501C10.14 18.5001 9.60999 19.4701 9.86999 20.5401C10.05 21.2901 10.66 21.9201 11.41 22.1201C12.87 22.5101 14.21 21.4201 14.21 20.0001C14.21 19.1501 13.72 18.4201 13.01 18.0501V15.0001H16.01C17.11 15.0001 18.01 14.1001 18.01 13.0001V11.0001C18.56 11.0001 19.01 10.5501 19.01 10.0001V8.00014C19 7.45014 18.55 7.00014 18 7.00014Z" fill="#969696"/>
</svg>
