<svg width="24" height="24" viewBox="0 0 24 24" fill="none" xmlns="http://www.w3.org/2000/svg">
<path fill-rule="evenodd" clip-rule="evenodd" d="M21 15.2001V9.91008C21 9.02008 19.92 8.57008 19.29 9.20008L17 11.5001V8.00008C17 7.45008 16.55 7.00008 16 7.00008H10.39L19.3 15.9101C19.92 16.5401 21 16.0901 21 15.2001ZM2.70998 3.56008C2.31998 3.95008 2.31998 4.58008 2.70998 4.97008L4.72998 7.00008H3.99998C3.44998 7.00008 2.99998 7.45008 2.99998 8.00008V18.0001C2.99998 18.5501 3.44998 19.0001 3.99998 19.0001H16C16.21 19.0001 16.39 18.9201 16.55 18.8201L19.03 21.3001C19.42 21.6901 20.05 21.6901 20.44 21.3001C20.83 20.9101 20.83 20.2801 20.44 19.8901L4.11998 3.56008C3.72998 3.17008 3.09998 3.17008 2.70998 3.56008Z" fill="#969696"/>
</svg>
