<svg width="24" height="24" viewBox="0 0 24 24" fill="none" xmlns="http://www.w3.org/2000/svg">
<g id="vpn_key">
<path id="Icon" fill-rule="evenodd" clip-rule="evenodd" d="M12.6499 10.0001C11.6999 7.31012 8.89994 5.50012 5.76994 6.12012C3.47994 6.58012 1.61994 8.41012 1.13994 10.7001C0.31994 14.5701 3.25994 18.0001 6.99994 18.0001C9.60994 18.0001 11.8299 16.3301 12.6499 14.0001H16.9999V16.0001C16.9999 17.1001 17.8999 18.0001 18.9999 18.0001C20.0999 18.0001 20.9999 17.1001 20.9999 16.0001V14.0001C22.0999 14.0001 22.9999 13.1001 22.9999 12.0001C22.9999 10.9001 22.0999 10.0001 20.9999 10.0001H12.6499ZM6.99994 14.0001C5.89994 14.0001 4.99994 13.1001 4.99994 12.0001C4.99994 10.9001 5.89994 10.0001 6.99994 10.0001C8.09994 10.0001 8.99994 10.9001 8.99994 12.0001C8.99994 13.1001 8.09994 14.0001 6.99994 14.0001Z" fill="#969696"/>
</g>
</svg>
