<svg width="24" height="24" viewBox="0 0 24 24" fill="none" xmlns="http://www.w3.org/2000/svg">
<path fill-rule="evenodd" clip-rule="evenodd" d="M12 11.0002C10.9 11.0002 9.99999 11.9002 9.99999 13.0002C9.99999 14.1002 10.9 15.0002 12 15.0002C13.1 15.0002 14 14.1002 14 13.0002C14 11.9002 13.1 11.0002 12 11.0002ZM18 13.0002C18 9.44019 14.89 6.60019 11.25 7.05019C8.62999 7.37019 6.46999 9.46019 6.06999 12.0702C5.73999 14.2202 6.55999 16.1802 7.99999 17.4702C8.47999 17.9002 9.22999 17.8002 9.55999 17.2402L9.56999 17.2302C9.80999 16.8102 9.70999 16.3002 9.34999 15.9702C8.31999 15.0402 7.75999 13.6002 8.12999 12.0302C8.45999 10.6102 9.60999 9.46019 11.03 9.12019C13.65 8.49019 16 10.4702 16 13.0002C16 14.1802 15.48 15.2302 14.67 15.9602C14.31 16.2802 14.2 16.8002 14.44 17.2202L14.45 17.2302C14.76 17.7602 15.48 17.9202 15.95 17.5102C17.2 16.4102 18 14.8002 18 13.0002ZM10.83 3.07019C6.20999 3.59019 2.47999 7.40019 2.04999 12.0302C1.69999 15.7302 3.36999 19.0502 6.06999 21.0402C6.54999 21.3902 7.22999 21.2402 7.52999 20.7302C7.77999 20.3002 7.66999 19.7402 7.26999 19.4402C4.98999 17.7502 3.61999 14.8902 4.10999 11.7402C4.64999 8.24019 7.56999 5.45019 11.09 5.06019C15.91 4.51019 20 8.28019 20 13.0002C20 15.6502 18.71 17.9802 16.73 19.4402C16.33 19.7402 16.22 20.2902 16.47 20.7302C16.77 21.2502 17.45 21.3902 17.93 21.0402C20.4 19.2202 22 16.3002 22 13.0002C22 7.09019 16.87 2.38019 10.83 3.07019Z" fill="#969696"/>
</svg>
